<svg xmlns="http://www.w3.org/2000/svg" viewBox="0 0 126.854 52.921">
  <defs>
    <style>
      .cls-1 {
        fill: #c5130f;
      }

      .cls-1, .cls-2 {
        fill-rule: evenodd;
      }

      .cls-2, .cls-3 {
        fill: #333;
      }
    </style>
  </defs>
  <g id="БЕРУ_ЛОГО" data-name="БЕРУ ЛОГО" transform="translate(0 -0.49)">
    <g id="_8084" data-name="8084" transform="translate(0 0.49)">
      <g id="Group-6" transform="translate(0 0)">
        <g id="Group" transform="translate(0 0)">
          <path id="Rectangle-2" class="cls-1" d="M48.762,6.764,60.7.645A1.4,1.4,0,0,1,61.954.632L74.546,6.771a1.4,1.4,0,0,1,.787,1.26v4.731q-1.174.874-3.389.126c-2.582-.872-8.982-4.641-10.637-4.641q-2,0-10.493,4.567L48,12.762V8.012A1.4,1.4,0,0,1,48.762,6.764Z" transform="translate(-14.359 -0.49)"/>
          <path id="Rectangle" class="cls-1" d="M2.1,6.308H69.384V1.4a1.4,1.4,0,0,0-1.4-1.4H.7A.7.7,0,0,0,0,.7v3.5A2.1,2.1,0,0,0,2.1,6.308Z" transform="translate(126.854 14.374) rotate(180)"/>
          <path id="Rectangle-2-2" data-name="Rectangle" class="cls-1" d="M2.1,12H36.444v4.906a1.4,1.4,0,0,1-1.4,1.4H.7a.7.7,0,0,1-.7-.7V14.1A2.1,2.1,0,0,1,2.1,12Z" transform="translate(0 -3.933)"/>
        </g>
        <g id="Group-5" transform="translate(0 21.383)">
          <g id="Group-3" transform="translate(73.59)">
            <path id="Rectangle-15" class="cls-2" d="M67,0h6.308V28.735a2.1,2.1,0,0,1-2.1,2.1H67Z" transform="translate(-20.043)"/>
            <path id="Rectangle-16" class="cls-2" d="M1,36H47.819v5.607H3.128A2.115,2.115,0,0,1,1,39.5Z" transform="translate(-0.299 -10.769)"/>
            <path id="Rectangle-17" class="cls-2" d="M0,31H6.308v9.111H2.1a2.1,2.1,0,0,1-2.1-2.1Z" transform="translate(0 -9.274)"/>
            <path id="Rectangle-18" class="cls-2" d="M33,0h7.709V19.624H35.1a2.1,2.1,0,0,1-2.1-2.1Z" transform="translate(-9.872)"/>
            <rect id="Rectangle-19" class="cls-3" width="18.222" height="7.709" transform="translate(30.137 11.915)"/>
          </g>
          <g id="Group-2">
            <rect id="Rectangle-3" class="cls-3" width="6.308" height="9.812" transform="translate(55.367)"/>
            <path id="Rectangle-4" class="cls-2" d="M2.1,0H60.974V7.009H0V2.1A2.1,2.1,0,0,1,2.1,0Z" transform="translate(0)"/>
            <path id="Rectangle-5" class="cls-2" d="M0,4H5.607V32.735H2.1a2.1,2.1,0,0,1-2.1-2.1Z" transform="translate(0 -1.197)"/>
            <path id="Rectangle-6" class="cls-2" d="M8,18H30.465a2.9,2.9,0,0,1,3,2.8v4.205H8Z" transform="translate(-4.024 -5.385)"/>
            <path id="Rectangle-6-2" data-name="Rectangle-6" class="cls-2" d="M8-37.991H29.944a2.867,2.867,0,0,0,2.926-2.8V-45H8Z" transform="translate(-3.434 69.53)"/>
            <rect id="Rectangle-7" class="cls-3" width="6.308" height="9.111" transform="translate(23.128 17.521)"/>
          </g>
          <g id="Group-4" transform="translate(32.239 0)">
            <rect id="Rectangle-14" class="cls-3" width="7.009" height="10.513" transform="translate(55.367 4.906)"/>
            <path id="Rectangle-8" class="cls-2" d="M0,14H6.308V35.726H3.5a3.5,3.5,0,0,1-3.5-3.5Z" transform="translate(0 -4.188)"/>
            <rect id="Rectangle-9" class="cls-3" width="23.829" height="7.009" transform="translate(5.607 24.53)"/>
            <rect id="Rectangle-10" class="cls-3" width="5.607" height="7.009" transform="translate(23.829 21.726)"/>
            <path id="Rectangle-11" class="cls-2" d="M9,18H66.46v4.906a2.129,2.129,0,0,1-2.155,2.1H9Z" transform="translate(-4.084 -5.385)"/>
            <rect id="Rectangle-12" class="cls-3" width="7.009" height="30.137" transform="translate(32.239 0.701)"/>
            <path id="Rectangle-13" class="cls-2" d="M46,0H74.034a2.1,2.1,0,0,1,2.1,2.1V7.009H46Z" transform="translate(-13.761 0)"/>
          </g>
        </g>
      </g>
    </g>
  </g>
</svg>
