<svg xmlns="http://www.w3.org/2000/svg" viewBox="0 0 408.629 285.503">
  <defs>
    <style>
      .cls-1 {
        fill: #060606;
      }

      .cls-2 {
        fill: none;
        stroke: #060606;
        stroke-miterlimit: 10;
        stroke-width: 0.438px;
      }
    </style>
  </defs>
  <g id="Group_28" data-name="Group 28" transform="translate(0 0)">
    <path id="Path_19" data-name="Path 19" class="cls-1" d="M201.4,96.948a90.2,90.2,0,0,1-1.3-9.739c0-2.6.974-7.791,1.623-7.791,2.273-.325,2.922,2.6,5.519,9.09C205.944,89.156,202.372,95,201.4,96.948Z" transform="translate(-197.278 38.867)"/>
    <path id="Path_20" data-name="Path 20" class="cls-1" d="M206.273,74.3c-5.519,2.6-5.844,30.517-3.571,34.737.325.974.974.974.974.974v.325s-1.623.325-3.246-5.194c-2.922-10.389-.325-29.543,5.844-30.841Z" transform="translate(-199.231 27.427)"/>
    <path id="Path_21" data-name="Path 21" class="cls-1" d="M203.936,75.8c-.649,3.571-1.3,9.09-1.623,12.986h0c-1.623-3.571-.974-10.064,1.623-12.986Z" transform="translate(-194.296 30.797)"/>
    <path id="Path_22" data-name="Path 22" class="cls-1" d="M203.258,72.4c-.649,3.9-.325,2.6-.974,6.818h0a13.364,13.364,0,0,1,.974-6.818Z" transform="translate(-192.644 23.159)"/>
    <path id="Path_23" data-name="Path 23" class="cls-1" d="M204.163,93.5a1.9,1.9,0,0,0-.325,1.3c0,.649-.325,6.818.325,6.493h0a.45.45,0,0,1-.649,0c-1.948-1.623-1.3-7.467.649-7.791Z" transform="translate(-192.251 70.559)"/>
    <path id="Path_24" data-name="Path 24" class="cls-1" d="M204.348,93.974a.974.974,0,0,1-1.948,0A.974.974,0,1,1,204.348,93.974Z" transform="translate(-192.111 69.436)"/>
    <path id="Path_25" data-name="Path 25" class="cls-1" d="M304.3,125.042s9.415,5.844,13.31,5.194a35.513,35.513,0,0,0,8.765-3.246c4.22-5.844,2.922-3.9,5.844-9.09Z" transform="translate(36.802 125.372)"/>
    <path id="Path_26" data-name="Path 26" class="cls-1" d="M223.75,126.968s-.649-28.244,1.948-32.14,4.545-5.519,8.116-3.9,8.116,9.739,9.09,11.363c-3.9,1.623-6.493,1.948-8.441,4.22C226.022,114.956,228.944,114.631,223.75,126.968Z" transform="translate(-144.311 63.387)"/>
    <path id="Path_27" data-name="Path 27" class="cls-1" d="M259,126.71c3.9-12.337,9.415-26.946,21.427-32.464,18.829-7.791,71.1-9.415,91.874-9.739,44.152-1.3,55.19,0,58.761,7.467l-.325.325c-4.545-8.116-17.531-6.168-58.436-4.545-99.017,4.22-99.99,5.844-113.3,39.282Z" transform="translate(-64.962 49.361)"/>
    <path id="Path_28" data-name="Path 28" class="cls-1" d="M259.1,106.635c2.272,7.792.974,12.012,109.405,3.246,12.986-.974,36.036-3.571,59.735-6.493,8.441-1.3,12.012-6.168,11.687-10.389h.325c.325,4.545-2.922,9.415-11.687,11.038-48.372,7.467-80.836,10.713-143.168,11.038-12.986.325-24.024,1.948-26.3-8.441Z" transform="translate(-64.737 69.436)"/>
    <path id="Path_29" data-name="Path 29" class="cls-1" d="M312,86.5c2.922,3.246,8.765,15.583,8.765,21.1h0c-.974-3.246-7.467-17.855-8.765-21.1Z" transform="translate(54.1 54.834)"/>
    <path id="Path_30" data-name="Path 30" class="cls-1" d="M254.6,106.21c9.09,12.986,17.855,12.012,53.891,10.389,1.3,0,125.962-5.194,139.6-12.661A11.691,11.691,0,0,0,454.581,92.9h.325c.649,5.194-2.272,11.363-11.363,13.96-6.493,1.948-49.671,9.09-106.159,11.363-66.552,2.6-74.344,1.948-82.784-12.012Z" transform="translate(-74.846 69.211)"/>
    <path id="Path_31" data-name="Path 31" class="cls-1" d="M257.5,113.679c8.765,6.493,18.5,7.467,30.192,7.142,11.363,0,57.787-1.3,124.663-8.116,26.621-2.922,39.607-4.22,37.01-18.5h.325c4.22,15.908-14.934,18.18-37.009,21.1-44.152,5.844-68.825,7.142-109.405,7.467-21.1.649-35.062.649-45.775-9.09Z" transform="translate(-68.332 72.132)"/>
    <path id="Path_32" data-name="Path 32" class="cls-1" d="M264.875,106.541c-1.948,2.273-.974,7.791,5.194,6.493h.325c.974-.325,1.623-1.948,1.623-2.922h0a2.927,2.927,0,0,0-.325-1.623c-.974-1.623-2.6-3.246-5.194-2.922v-.325c3.571-1.623,7.467.974,8.116,4.545a5.782,5.782,0,0,1-2.6,5.519,6.845,6.845,0,0,1-6.168-.325c-2.922-1.3-3.9-5.194-1.948-8.116a1.192,1.192,0,0,1,.974-.325Z" transform="translate(-56.228 95.827)"/>
    <path id="Path_33" data-name="Path 33" class="cls-1" d="M297.7,68.8c19.154,2.273,52.917,8.116,66.228,22.076,10.064,11.038,13.31,30.841,14.284,46.1h-.325C370.745,83.734,353.864,81.786,297.7,68.8Z" transform="translate(21.975 15.072)"/>
    <path id="Path_34" data-name="Path 34" class="cls-1" d="M334.306,89.6c11.038,24.348,10.713,59.085,4.22,73.694-4.22,8.116-12.661,11.363-21.427,13.635V176.6c6.493-2.272,14.934-6.493,18.5-12.661,6.493-9.739,6.818-46.749-1.3-74.344Z" transform="translate(65.556 61.798)"/>
    <path id="Path_35" data-name="Path 35" class="cls-1" d="M239.625,128.836c20.128,12.661,50.645,9.415,102.263,7.467,65.254-2.6,105.509-6.493,149.986-19.8v.325c-48.047,18.18-98.043,22.076-149.986,23.7-66.877,2.6-87.654-.325-102.588-11.038Z" transform="translate(-109.217 122.227)"/>
    <path id="Path_36" data-name="Path 36" class="cls-1" d="M300.5,70.7a69.83,69.83,0,0,1,20.777,14.284c16.882,17.206,20.777,31.491,24.024,48.372h-.325c-7.467-22.4-13.96-42.2-44.476-62.656Z" transform="translate(28.265 19.34)"/>
    <path id="Path_37" data-name="Path 37" class="cls-1" d="M314.8,100.963c4.545-7.142,8.765-2.6,24.673-11.363h0c-9.09,10.389-17.206,5.519-24.673,11.363Z" transform="translate(60.39 61.798)"/>
    <path id="Path_38" data-name="Path 38" class="cls-1" d="M307.5,107.69c15.258-1.3,26.621-3.571,45.775-9.09.974,3.571,3.246,9.415,6.493,11.038v.325c-3.9-.974-6.817-6.818-8.441-10.713l2.273,1.3c-14.934,5.844-30.517,9.09-46.1,7.142Z" transform="translate(43.991 82.016)"/>
    <path id="Path_39" data-name="Path 39" class="cls-1" d="M363.859,107.5c.649,8.765,1.623,21.1-29.543,30.192-9.09,2.6-21.427,3.9-30.517,4.22v-.325s4.545-.974,11.687-2.273c48.372-9.739,47.074-22.4,48.372-31.815Z" transform="translate(35.679 102.009)"/>
    <path id="Path_40" data-name="Path 40" class="cls-1" d="M437.187,130.655c-52.917,10.064-92.2,10.713-138.623,8.441-45.45-2.6-43.178-18.18-45.126-20.128-1.948-2.273-4.22-1.948-6.818-2.6a6.6,6.6,0,0,1-4.22-3.246l.325-.325a5.71,5.71,0,0,0,3.9,2.6c1.948.325,3.9.325,5.844,1.3,4.545,1.948,1.948,8.441,11.038,12.661,14.284,5.844,25.647,7.791,72.4,7.142,43.5-.649,50.969-.649,101.289-6.168Z" transform="translate(-102.253 113.916)"/>
    <path id="Path_41" data-name="Path 41" class="cls-1" d="M224.4,89.185c3.571-5.519,7.791-6.818,13.96-3.571,21.751,14.934,35.062,71.422,42.853,89.277h-.325C268.552,154.114,244.853,65.811,224.4,89.185Z" transform="translate(-142.689 48.903)"/>
    <path id="Path_42" data-name="Path 42" class="cls-1" d="M235.5,108.5c9.739,1.3,6.493.649,16.232,2.272h0c-4.22.974-12.661,0-16.232-2.272Z" transform="translate(-117.754 104.256)"/>
    <path id="Path_43" data-name="Path 43" class="cls-1" d="M224.375,131.016a135.1,135.1,0,0,1-.974-17.531c0-9.09-.325-25.322,9.415-23.374a16.447,16.447,0,0,1,4.87,2.272c8.765,7.142,21.427,43.5,24.024,56.164h-.325c-3.246-10.064-17.206-44.152-22.4-50.645-2.272-3.246-6.168-6.818-9.415-4.545-5.194,3.571-4.87,29.543-5.194,37.659Z" transform="translate(-144.936 62.585)"/>
    <path id="Path_44" data-name="Path 44" class="cls-1" d="M235.2,108c5.519,12.336,5.194,14.284,13.96,40.256h-.325c-7.142-12.012-8.116-18.18-10.389-27.27-1.623-5.519-2.6-9.739-3.246-12.986Z" transform="translate(-118.427 103.133)"/>
    <path id="Path_45" data-name="Path 45" class="cls-1" d="M229.816,86.1c-5.844,10.389-4.87,19.154-5.194,33.763-.325,11.363,1.948,22.725,2.922,34.737h-.325c-4.87-17.855-5.519-26.621-5.519-34.737.649-12.986,0-24.673,8.116-33.763Z" transform="translate(-148.755 53.935)"/>
    <path id="Path_46" data-name="Path 46" class="cls-1" d="M244.518,94.011A14.629,14.629,0,0,0,239,95.634c-13.96,7.142-13.31,24.348-12.012,69.8.325,14.284,4.22,36.685,16.557,44.152,1.623.974,2.922,1.948,3.571,1.948a1.9,1.9,0,0,0,1.3-.325v.325s-.325.325-1.623.325a9.963,9.963,0,0,1-4.22-1.623c-13.31-7.142-18.18-30.192-18.829-44.8-1.3-37.659,0-51.294,3.571-59.085,4.22-8.116,11.362-12.661,17.206-12.337Z" transform="translate(-145.276 71.671)"/>
    <path id="Path_47" data-name="Path 47" class="cls-1" d="M227.4,94.9c24.673,2.272,29.218,98.043,12.012,114.6l-.325-.325C253.7,192.618,248.177,99.12,227.4,94.9Z" transform="translate(-135.95 73.704)"/>
    <path id="Path_48" data-name="Path 48" class="cls-1" d="M271.181,122.5c-2.922,32.14-12.336,27.919-40.581,25.972v-.325c14.934-2.272,28.244,2.922,34.737-8.441,2.922-5.519,3.9-12.012,5.844-17.206Z" transform="translate(-128.761 135.706)"/>
    <path id="Path_49" data-name="Path 49" class="cls-1" d="M247.214,156.339v.649c-.325,4.22-.974,9.415-.974,9.415h0a4.118,4.118,0,0,1-.325,1.948c-3.9,22.4-13.635,11.038-17.531-3.246-3.571-12.986-6.493-62.332,5.194-64.6.974-.325,1.3,0,1.3,0v.325c-11.687-2.273-7.792,50.969-4.545,63.63,1.3,4.22,3.571,10.064,6.168,12.986,3.571,3.9,5.194,1.623,6.818-3.246a27.491,27.491,0,0,0,1.3-5.519c.325-.974.325-1.948.649-2.922s.325-1.948.649-2.922h0a45.068,45.068,0,0,1,.974-5.519,1.193,1.193,0,0,1,.325-.974Z" transform="translate(-140.83 85.96)"/>
    <path id="Path_50" data-name="Path 50" class="cls-1" d="M228.2,100.4c11.687,1.948,16.232,34.737,12.661,53.242h-.325c.649-10.713-1.3-49.346-12.336-53.242Z" transform="translate(-134.153 86.06)"/>
    <path id="Path_51" data-name="Path 51" class="cls-1" d="M287.079,110.319c-19.154.974-36.685-1.948-37.334,12.661-.974,11.038,11.687,13.635,21.427,15.258,1.948.325,11.687,1.948,14.284,2.273v.325c-8.765-.649-15.908-1.3-21.427-2.272-24.348-4.22-17.531-25.972-6.493-28.244,10.064-1.3,19.8-.649,29.543,0Z" transform="translate(-90.768 106.657)"/>
    <path id="Path_52" data-name="Path 52" class="cls-1" d="M254.077,112.315a11.7,11.7,0,0,0-3.246,4.87c-4.545,15.583,16.881,19.154,19.154,5.519.325-2.272.325-4.87-1.3-6.818-3.571-5.194-6.818-5.519-10.389-5.194v-.325a11.067,11.067,0,0,1,13.31,12.336c-2.272,15.583-24.673,12.012-23.05-1.948.974-3.246,2.6-6.818,5.519-8.441Z" transform="translate(-88.608 107.907)"/>
    <path id="Path_53" data-name="Path 53" class="cls-1" d="M332.982,104.618c-11.363-.325-15.583,7.467-16.232,18.5,0,2.922-.649,5.194,4.22,5.519v.325c-4.87.649-5.843-1.3-5.843-5.844-.649-13.96,7.142-20.128,16.232-19.154.974.325,1.623.325,1.623.649Z" transform="translate(61.037 93.853)"/>
    <path id="Path_54" data-name="Path 54" class="cls-1" d="M321.3,104.2c1.948,1.3,3.246,2.922,3.246,7.791h0c-.974-1.3-.649-.974-3.246-7.791Z" transform="translate(74.992 94.596)"/>
    <path id="Path_55" data-name="Path 55" class="cls-1" d="M323.242,104.559s2.272-.649,4.87,1.623a10.793,10.793,0,0,1,2.272,11.038c-2.6,5.844-10.064,7.791-14.284,2.273h0c4.87,4.87,14.284,1.3,13.31-8.441.325-1.623-1.623-6.168-6.168-6.493Z" transform="translate(63.31 95.211)"/>
    <path id="Path_56" data-name="Path 56" class="cls-1" d="M317.174,114.471c1.948,2.922,8.441,2.922,10.064-1.623,1.948-6.168-6.817-10.389-11.038-2.6h0c.974-2.922,4.87-6.493,8.765-4.87a6.1,6.1,0,0,1,3.9,4.87c1.3,7.142-8.441,9.739-11.687,4.22Z" transform="translate(63.535 96.337)"/>
    <path id="Path_57" data-name="Path 57" class="cls-1" d="M265.7,122.534c50.32-2.6,97.718-6.168,157.777-14.934.974,11.687-1.3,17.531-14.609,23.7a46.3,46.3,0,0,1-8.765,2.922V133.9a65.051,65.051,0,0,0,8.441-3.246c11.687-5.844,14.284-11.687,13.31-21.1l.325.325c-52.268,9.09-100.965,13.635-156.479,12.661Z" transform="translate(-49.911 102.234)"/>
    <path id="Path_58" data-name="Path 58" class="cls-1" d="M268.383,112.4a5.836,5.836,0,0,0-3.246,4.545c-.974,5.194,2.273,10.389,6.493,12.661,14.284,7.467,105.185-.649,121.092-2.273v.325c-33.114,5.844-105.834,12.336-122.066,3.246-7.467-4.22-9.415-15.583-2.272-18.5Z" transform="translate(-53.892 113.017)"/>
    <path id="Path_59" data-name="Path 59" class="cls-1" d="M266.566,113.1c-2.6,18.829,16.232,17.855,32.789,17.855,30.192-.325,77.915-3.9,96.744-8.765h0c-19.8,5.519-63.306,9.739-96.744,9.739-14.284,0-36.36,1.3-32.789-18.829Z" transform="translate(-48.829 114.59)"/>
    <path id="Path_60" data-name="Path 60" class="cls-1" d="M317.216,109c-.649,8.765-.974,13.635-8.116,18.829V127.5a39.985,39.985,0,0,0,4.87-8.765c.649-1.948,1.623-7.142,3.246-9.739Z" transform="translate(47.585 105.379)"/>
    <g id="Group_26" data-name="Group 26" transform="translate(217.531 213.074)">
      <path id="Path_61" data-name="Path 61" class="cls-1" d="M289.525,113.349V112.7H289.2v.649Z" transform="translate(-214.651 -99.383)"/>
      <path id="Path_62" data-name="Path 62" class="cls-1" d="M285.925,113.549V112.9H285.6v.649Z" transform="translate(-222.738 -98.934)"/>
      <path id="Path_63" data-name="Path 63" class="cls-1" d="M274.3,119.119c2.6,0,5.519-.325,8.116-.325.325-1.948.325-3.571.649-5.194-2.922,0-5.844.325-8.765.325Z" transform="translate(-248.123 -97.361)"/>
      <path id="Path_64" data-name="Path 64" class="cls-1" d="M289.2,118.444c3.571-.325,6.817-.649,10.389-.974a24.574,24.574,0,0,0,.325-4.87c-3.246.325-6.818.649-10.064.974C289.525,114.873,289.525,116.82,289.2,118.444Z" transform="translate(-214.651 -99.608)"/>
      <path id="Path_65" data-name="Path 65" class="cls-1" d="M292.825,113.049V112.4H292.5v.649Z" transform="translate(-207.238 -100.057)"/>
      <path id="Path_66" data-name="Path 66" class="cls-1" d="M277.325,113.825V113.5H277v.325Z" transform="translate(-242.058 -97.586)"/>
      <path id="Path_67" data-name="Path 67" class="cls-1" d="M277,119.019c2.922,0,5.844-.325,8.765-.325a27.763,27.763,0,0,0,0-5.194c-2.922,0-5.844.325-8.441.325A29.707,29.707,0,0,1,277,119.019Z" transform="translate(-242.058 -97.586)"/>
      <path id="Path_68" data-name="Path 68" class="cls-1" d="M280.125,113.949V113.3H279.8v.649Z" transform="translate(-235.767 -98.035)"/>
      <path id="Path_69" data-name="Path 69" class="cls-1" d="M295.825,112.649V112H295.5v.649C295.5,112.974,295.825,112.974,295.825,112.649Z" transform="translate(-200.498 -100.956)"/>
      <path id="Path_70" data-name="Path 70" class="cls-1" d="M283.024,118.944c2.922-.325,5.844-.325,8.441-.649,0-1.623.325-3.246.325-5.194-2.922.325-5.844.325-9.09.649A14.463,14.463,0,0,1,283.024,118.944Z" transform="translate(-229.253 -98.485)"/>
      <path id="Path_71" data-name="Path 71" class="cls-1" d="M283.025,113.749V113.1H282.7v.649Z" transform="translate(-229.253 -98.485)"/>
      <path id="Path_72" data-name="Path 72" class="cls-1" d="M280.125,119.144a79.6,79.6,0,0,0,8.766-.649V113.3a82.081,82.081,0,0,1-9.09.325A31.509,31.509,0,0,1,280.125,119.144Z" transform="translate(-235.767 -98.035)"/>
      <path id="Path_73" data-name="Path 73" class="cls-1" d="M292.6,118.368l8.765-.974a28.42,28.42,0,0,0,.649-5.194c-2.922.325-6.168.649-9.415.974C292.6,115.122,292.6,116.745,292.6,118.368Z" transform="translate(-207.013 -100.506)"/>
      <path id="Path_74" data-name="Path 74" class="cls-1" d="M305.3,116.768c1.948-.325,3.571-.649,5.519-.974.325-1.948.649-3.571.974-5.194l-5.844.974A28.409,28.409,0,0,1,305.3,116.768Z" transform="translate(-178.483 -104.101)"/>
      <path id="Path_75" data-name="Path 75" class="cls-1" d="M303.2,117.068c1.948-.325,4.22-.649,6.168-.974.325-1.623.649-3.571.974-5.194l-6.818.974C303.525,113.822,303.2,115.445,303.2,117.068Z" transform="translate(-183.201 -103.427)"/>
      <path id="Path_76" data-name="Path 76" class="cls-1" d="M307.725,110.825h0a.318.318,0,0,0-.325-.325v.325Z" transform="translate(-173.765 -104.325)"/>
      <path id="Path_77" data-name="Path 77" class="cls-1" d="M305.725,111.125V110.8H305.4v.325Z" transform="translate(-178.258 -103.652)"/>
      <path id="Path_78" data-name="Path 78" class="cls-1" d="M307.3,116.693c1.623-.325,3.246-.649,5.194-.974a31.976,31.976,0,0,0,.649-5.519c-1.623.325-3.571.649-5.194.974C307.625,113.122,307.625,115.07,307.3,116.693Z" transform="translate(-173.99 -104.999)"/>
      <path id="Path_79" data-name="Path 79" class="cls-1" d="M309.425,110.468H309.1v.325A.318.318,0,0,1,309.425,110.468Z" transform="translate(-169.947 -104.943)"/>
      <path id="Path_80" data-name="Path 80" class="cls-1" d="M300.7,117.468c2.6-.325,4.87-.649,7.467-.974a26.234,26.234,0,0,0,.325-5.194c-2.6.325-4.87.649-7.467.974A29.725,29.725,0,0,1,300.7,117.468Z" transform="translate(-188.817 -102.528)"/>
      <path id="Path_81" data-name="Path 81" class="cls-1" d="M299.018,112.349V111.7h-.325v.649Z" transform="translate(-193.627 -101.63)"/>
      <path id="Path_82" data-name="Path 82" class="cls-1" d="M303.525,111.425V111.1H303.2v.325C303.2,111.749,303.2,111.749,303.525,111.425Z" transform="translate(-183.201 -102.978)"/>
      <path id="Path_83" data-name="Path 83" class="cls-1" d="M298.6,117.444a39.78,39.78,0,0,1,6.168-.649c.325-1.623.325-3.246.649-5.194-2.272.325-4.22.649-6.493.974C298.925,114.2,298.6,115.82,298.6,117.444Z" transform="translate(-193.534 -101.854)"/>
      <path id="Path_84" data-name="Path 84" class="cls-1" d="M301.249,112.049V111.4H300.6v.649Z" transform="translate(-189.041 -102.304)"/>
      <path id="Path_85" data-name="Path 85" class="cls-1" d="M295.4,118.068c3.246-.325,6.168-.649,9.415-.974a26.241,26.241,0,0,0,.325-5.194c-3.246.325-6.168.649-9.415.974A14.054,14.054,0,0,1,295.4,118.068Z" transform="translate(-200.723 -101.18)"/>
      <path id="Path_86" data-name="Path 86" class="cls-1" d="M285.7,118.968l10.713-.974a28.419,28.419,0,0,0,.649-5.194c-3.9.325-7.467.649-11.363.974Z" transform="translate(-222.513 -99.159)"/>
      <path id="Path_87" data-name="Path 87" class="cls-1" d="M289.874,115.274c-.325,1.948-.649,3.9-.974,5.519,3.571-.325,6.818-.649,10.389-.974.325-1.948.649-3.571.974-5.519C296.691,114.625,293.12,114.949,289.874,115.274Z" transform="translate(-215.325 -95.789)"/>
      <path id="Path_88" data-name="Path 88" class="cls-1" d="M293.174,114.974c-.325,1.948-.649,3.9-.974,5.519,2.922-.325,5.519-.649,8.441-.974.325-1.948.649-3.571.974-5.519C299.017,114.325,296.1,114.649,293.174,114.974Z" transform="translate(-207.912 -96.463)"/>
      <path id="Path_89" data-name="Path 89" class="cls-1" d="M296.074,114.9c-.325,1.948-.649,3.9-.974,5.519,3.246-.325,6.493-.649,9.739-1.3a31.979,31.979,0,0,0,.649-5.519A82.3,82.3,0,0,1,296.074,114.9Z" transform="translate(-201.397 -97.361)"/>
      <path id="Path_90" data-name="Path 90" class="cls-1" d="M286.149,115.574a28.593,28.593,0,0,1-.649,5.519l10.713-.974c.325-1.948.649-3.571.974-5.519C293.291,114.925,289.72,115.249,286.149,115.574Z" transform="translate(-222.963 -95.115)"/>
      <path id="Path_91" data-name="Path 91" class="cls-1" d="M277.674,115.525c-.325,1.948-.649,4.22-.974,5.844,2.922,0,5.844-.325,9.09-.325a35.766,35.766,0,0,0,.649-5.844A79.117,79.117,0,0,1,277.674,115.525Z" transform="translate(-242.731 -93.767)"/>
      <path id="Path_92" data-name="Path 92" class="cls-1" d="M283.249,115.549a28.6,28.6,0,0,1-.649,5.519c2.922-.325,5.844-.325,8.441-.649a36.138,36.138,0,0,0,.649-5.519C289.093,115.225,286.171,115.225,283.249,115.549Z" transform="translate(-229.477 -94.441)"/>
      <path id="Path_93" data-name="Path 93" class="cls-1" d="M274.525,115.4c0,1.948-.325,3.9-.325,6.168,2.6,0,5.194-.325,7.467-.325.325-1.623.649-3.9.974-5.844Z" transform="translate(-248.348 -93.318)"/>
      <path id="Path_94" data-name="Path 94" class="cls-1" d="M280.574,115.425a18.386,18.386,0,0,1-.974,5.844c2.922-.325,6.168-.325,9.09-.649.325-1.948.325-3.9.649-5.519C286.418,115.1,283.5,115.425,280.574,115.425Z" transform="translate(-236.217 -93.992)"/>
      <path id="Path_95" data-name="Path 95" class="cls-1" d="M306.8,118.818a28.415,28.415,0,0,1,5.194-.649,34.486,34.486,0,0,0,1.3-6.168c-1.623.325-3.571.649-5.194.974A30.867,30.867,0,0,1,306.8,118.818Z" transform="translate(-175.113 -100.956)"/>
      <path id="Path_96" data-name="Path 96" class="cls-1" d="M306.2,113.049a37.758,37.758,0,0,1-1.3,5.844,31.988,31.988,0,0,1,5.519-.649,37.749,37.749,0,0,0,1.3-5.844A36.153,36.153,0,0,0,306.2,113.049Z" transform="translate(-179.382 -100.057)"/>
      <path id="Path_97" data-name="Path 97" class="cls-1" d="M412.208,108.6c-3.571.325-86.68,9.739-113.626,11.038l-31.815.974s-1.948,10.713,1.623,14.609,7.467,6.168,25.647,7.142,91.874-6.493,101.289-9.415c9.415-2.6,10.389-3.246,12.986-7.791S415.779,108.28,412.208,108.6Zm-.974,9.739h0a52.739,52.739,0,0,0-6.168,1.3,34.246,34.246,0,0,1-1.623,6.168c1.3-.325,2.6-.325,3.9-.649h0c-1.3.325-2.6.325-4.22.649a23.55,23.55,0,0,1-1.623,3.9h0c.325-1.3.974-2.6,1.3-3.9-1.623.325-3.571.649-5.194.974-.649,1.623-1.3,3.246-1.948,4.545h0c.649-1.3.974-2.922,1.623-4.545-1.948.325-3.571.649-5.519.974-.649,1.623-1.3,3.571-1.948,5.194h-.325l.325-.974h0v.325c.325-1.623.974-2.922,1.3-4.545l-5.844.974a24.33,24.33,0,0,1-1.623,5.194h0q.487-2.922.974-4.87c-2.6.325-4.87.649-7.467.974-.325,1.623-.974,3.246-1.3,4.87h0c.325-1.623.649-2.922.974-4.545-1.948.325-4.22.649-6.168.974-.325,1.623-.974,3.246-1.3,4.545h0c.325-1.623.649-2.922.974-4.545-3.246.325-6.493.974-10.064,1.3a17.1,17.1,0,0,1-1.623,4.87h0c.325-1.623.649-2.922.974-4.545-2.922.325-5.843.649-8.441.974-.325,1.623-.974,3.246-1.3,4.87h0c.325-1.623.649-3.246.974-4.545-3.571.325-6.817.649-10.389.974a24.33,24.33,0,0,1-1.623,5.194h0c.325-1.623.649-3.246.974-5.194L329.1,136.2a17.115,17.115,0,0,1-1.623,4.87h0l.974-4.87c-2.922.325-5.844.325-8.441.649-.325,1.623-.974,3.246-1.3,5.194h0l.974-4.87c-2.922.325-6.168.325-9.09.649a18.773,18.773,0,0,1-1.623,4.545h0c.325-1.3.649-2.922.974-4.545-2.922,0-5.844.325-9.09.325a10.953,10.953,0,0,1-1.3,3.9h0a12.108,12.108,0,0,0,.649-3.9h-7.467a25.176,25.176,0,0,1-.325,2.922h0v-2.922c-2.6,0-5.519.325-8.116.325,0,.974-.325,1.948-.325,2.922h0v-2.6c-2.273,0-4.545-.325-7.142-.325,0,.649,0,1.3-.325,1.3h0V138.8c-1.3,0-2.273.325-3.571.325h3.571v-6.493h0v-5.519h-6.493c1.3,0,4.22-.325,6.493-.325v-3.571h0c0,1.3.325,2.273.325,3.571h7.142a12.179,12.179,0,0,1,.325-3.246h0a13.445,13.445,0,0,0,.325,3.246,73.857,73.857,0,0,0,8.441-.649v-2.922h0c0,1.3.325,1.948.325,2.922a78.945,78.945,0,0,0,8.765,0v-3.246c.325,0,.325,2.922.325,3.246a73.866,73.866,0,0,0,8.441-.649,15.809,15.809,0,0,0-.325-3.9h0a16.3,16.3,0,0,1,.649,3.9,85.556,85.556,0,0,0,9.09-.649v-4.22h0a18.513,18.513,0,0,1,.325,4.22c2.922-.325,6.168-.325,9.09-.649v-2.922h0c0,1.3.325,1.948.325,2.922,3.9-.325,7.467-.649,11.363-.974,0-.974.325-1.948.325-2.922h0v2.922c3.246-.325,6.818-.325,10.064-.649v-2.6c.325,0,.325,2.273.325,2.6,3.246-.325,6.168-.649,9.415-.974,0-.974.325-1.623.325-2.6h0v2.273c3.246-.325,6.168-.649,9.415-.974a10.006,10.006,0,0,1,.325-3.246h0c0,.974.325,2.273.325,3.246a44,44,0,0,1,6.493-.649c0-1.3.325-2.273.325-3.571h0v3.571c2.6-.325,5.194-.649,7.467-.974a18.634,18.634,0,0,1,.325-3.9h0c0,.974.325,2.272.325,3.571l6.818-.974c.325-1.3.325-2.273.649-3.571h0v3.571l5.844-.974c.325-1.3.325-2.6.649-3.9h0a13.314,13.314,0,0,1-.325,3.571c1.623-.325,3.571-.649,5.194-.974,0-1.3.325-2.272.325-3.246h0V115.1c1.948-.325,3.571-.649,5.519-.974h0c-1.948.325-3.9.649-5.519.974a36.139,36.139,0,0,1-.649,5.519A11.021,11.021,0,0,1,411.234,118.344Z" transform="translate(-266.237 -108.598)"/>
      <path id="Path_98" data-name="Path 98" class="cls-1" d="M303.874,113.574l-.974,5.844,5.844-.974c.325-1.948.974-3.9,1.3-5.844A22.06,22.06,0,0,1,303.874,113.574Z" transform="translate(-183.874 -99.608)"/>
      <path id="Path_99" data-name="Path 99" class="cls-1" d="M299.274,114.049c-.325,1.948-.325,3.9-.974,5.519a39.773,39.773,0,0,1,6.168-.649,31.991,31.991,0,0,0,.649-5.519A35.775,35.775,0,0,0,299.274,114.049Z" transform="translate(-194.208 -97.811)"/>
      <path id="Path_100" data-name="Path 100" class="cls-1" d="M301.374,114.2c-.325,1.948-.649,3.9-.974,5.519,2.6-.325,4.87-.649,7.467-.974l.974-5.844A72.409,72.409,0,0,1,301.374,114.2Z" transform="translate(-189.491 -98.934)"/>
      <path id="Path_101" data-name="Path 101" class="cls-1" d="M274.525,113.925V113.6H274.2v.325Z" transform="translate(-248.348 -97.361)"/>
      <path id="Path_102" data-name="Path 102" class="cls-1" d="M269.525,113.7H269.2v.325c0-.325,0-.325.325-.325Z" transform="translate(-259.58 -97.137)"/>
      <path id="Path_103" data-name="Path 103" class="cls-1" d="M271.825,115.725a37.279,37.279,0,0,1-.325,6.168c2.6,0,5.519-.325,8.116-.325,0-2.6.325-4.22.325-6.168C277.344,115.4,274.422,115.725,271.825,115.725Z" transform="translate(-254.413 -93.318)"/>
      <path id="Path_104" data-name="Path 104" class="cls-1" d="M269.525,119.219h6.818V113.7H269.2A29.7,29.7,0,0,1,269.525,119.219Z" transform="translate(-259.58 -97.137)"/>
      <path id="Path_105" data-name="Path 105" class="cls-1" d="M269.525,115.5a41.391,41.391,0,0,1-.325,6.493,55.034,55.034,0,0,0,7.142-.325V115.5Z" transform="translate(-259.58 -93.093)"/>
      <path id="Path_106" data-name="Path 106" class="cls-1" d="M271.6,119.444a67.858,67.858,0,0,0,8.116-.325V113.6H271.6Z" transform="translate(-254.188 -97.361)"/>
      <path id="Path_107" data-name="Path 107" class="cls-1" d="M271.825,113.925h0a.318.318,0,0,0-.325-.325v.325Z" transform="translate(-254.413 -97.361)"/>
    </g>
    <path id="Path_108" data-name="Path 108" class="cls-1" d="M303.6,124.293c7.467,2.6,19.154,11.038,30.192-6.493h.325c-3.246,12.986-14.609,15.908-23.05,11.687a23.783,23.783,0,0,1-7.467-5.194Z" transform="translate(35.229 125.148)"/>
    <path id="Path_109" data-name="Path 109" class="cls-1" d="M354.275,113.4c-.974,9.415-4.87,22.4-13.31,26.621-7.467,3.571-24.024,2.922-32.464,1.3v-.325c7.467,0,29.218-.649,34.737-5.844,5.844-5.844,8.765-16.232,11.038-21.751Z" transform="translate(46.237 115.263)"/>
    <path id="Path_110" data-name="Path 110" class="cls-1" d="M320.971,73.8c-9.415,2.6-8.765,13.635-5.519,22.725,1.623,4.545,3.9,8.765,6.817,14.609,7.142,14.609,5.844,14.284,9.09,14.284,2.922,0,6.818-1.3,8.765-3.246,3.246-2.922,3.246-8.116,2.922-12.661h.325c1.623,10.064-.974,14.284-8.116,16.882-8.116,2.922-8.765-.649-11.687-6.493-5.844-11.687-8.765-16.882-10.389-22.725C308.31,81.591,314.8,73.8,320.971,73.8Z" transform="translate(52.92 26.304)"/>
    <path id="Path_111" data-name="Path 111" class="cls-1" d="M321.071,75c-6.818,3.246-8.765,17.855-1.3,33.114,5.194,11.363,6.818,11.687,8.441,11.363,4.87-.325,9.739-4.545,9.415-14.284h.325c2.273,14.609-9.415,17.531-12.661,15.258-2.6-1.623-6.493-9.415-7.467-11.687-9.09-18.5-2.6-32.464,3.246-33.763Z" transform="translate(57.04 29)"/>
    <path id="Path_112" data-name="Path 112" class="cls-1" d="M314.3,78.147c9.09-.974,18.18,8.765,13.635,20.128h-.325c.325-7.142,0-7.791-2.922-12.661A14.512,14.512,0,0,0,314.3,78.147Z" transform="translate(59.266 35.917)"/>
    <path id="Path_113" data-name="Path 113" class="cls-1" d="M321.671,85.8a6.746,6.746,0,0,1,1.623,6.818A4.065,4.065,0,0,1,318.1,94.89h0c2.273-.325,3.9-1.3,3.9-3.246a16.717,16.717,0,0,0-.325-5.844Z" transform="translate(67.803 53.262)"/>
    <path id="Path_114" data-name="Path 114" class="cls-1" d="M314.9,89.877a5.12,5.12,0,0,1,.325-1.3,6.556,6.556,0,0,1,6.818-4.545c10.064,1.623,4.87,17.531-1.623,14.934h0c5.519.974,8.441-9.415,3.9-12.661-3.247-1.948-7.142-.974-9.415,3.571Z" transform="translate(60.614 49.185)"/>
    <path id="Path_115" data-name="Path 115" class="cls-1" d="M314.4,83.1c5.844,1.3,3.9.974,9.415,2.273h0c-3.246,1.3-7.791,0-9.415-2.273Z" transform="translate(59.491 47.196)"/>
    <path id="Path_116" data-name="Path 116" class="cls-1" d="M316.016,79.1a34.055,34.055,0,0,1-1.3,11.038h0a18.076,18.076,0,0,1,1.3-11.038Z" transform="translate(59.499 38.21)"/>
    <path id="Path_117" data-name="Path 117" class="cls-1" d="M317,79.7c.325,2.922-.649,8.441-1.948,10.713h0A20.971,20.971,0,0,1,317,79.7Z" transform="translate(60.783 39.558)"/>
    <path id="Path_118" data-name="Path 118" class="cls-1" d="M235.9,95.4c27.595,3.246,44.8,1.948,72.071,5.844v.325c-19.154-.325-54.216-.974-72.071-6.168Z" transform="translate(-116.855 74.827)"/>
    <path id="Path_119" data-name="Path 119" class="cls-1" d="M228.534,106.6c-1.623,7.142-.974,16.232-.325,23.374,1.623,14.934,1.623,17.531,13.31,29.867h0c-12.012-10.064-12.986-16.232-13.96-24.348-1.3-9.09-1.948-20.453.974-28.893Z" transform="translate(-138.057 99.988)"/>
    <path id="Path_120" data-name="Path 120" class="cls-1" d="M227.4,106.8a4.424,4.424,0,0,1,1.948-.974c2.922-.325,3.571,1.623,4.22,2.922,3.9,9.09,7.467,29.218.649,40.256h-.325c3.571-11.363,0-30.192-2.6-40.905l-.325-.325h0a3.114,3.114,0,0,0-3.246-.974Z" transform="translate(-135.95 98.166)"/>
    <path id="Path_121" data-name="Path 121" class="cls-1" d="M229.3,111a.318.318,0,0,1,.325.325c1.3,1.3,2.272,7.467.325,9.739h0c.325-2.273,0-1.948-.325-4.87,0-.649,0-4.545-.325-5.194Z" transform="translate(-131.681 109.872)"/>
    <path id="Path_122" data-name="Path 122" class="cls-1" d="M233.085,109.1c-4.87,7.467-4.22,14.934,1.623,21.751h0c-7.467-4.545-8.116-16.232-1.623-21.751Z" transform="translate(-133.194 105.604)"/>
    <path id="Path_123" data-name="Path 123" class="cls-1" d="M232.348,106.5l-.649,4.22v.325h0c0,.649.974,1.3,1.623,1.623h0c-1.948,0-2.922-.649-2.922-2.6a19.391,19.391,0,0,1,1.948-3.571Z" transform="translate(-129.21 99.763)"/>
    <path id="Path_124" data-name="Path 124" class="cls-1" d="M232.781,110.3c-.649.974-.325,2.273-.325,3.246h0a11.53,11.53,0,0,0,1.3,2.922h0a3.451,3.451,0,0,1-2.6-2.922c-.325-1.623.325-2.922,1.623-3.246Z" transform="translate(-127.695 108.299)"/>
    <path id="Path_125" data-name="Path 125" class="cls-1" d="M233.585,114a4.636,4.636,0,0,0-.974,2.273c-.325,1.3.325,2.273.974,4.87h0a12.126,12.126,0,0,1-1.948-2.272,2.936,2.936,0,0,1,0-3.246A2.275,2.275,0,0,1,233.585,114Z" transform="translate(-127.526 116.611)"/>
    <path id="Path_126" data-name="Path 126" class="cls-1" d="M234.051,117.831s-.325,0-.974.649c-1.623,1.3.325,3.571.649,5.194h0c-5.194-3.9-1.948-6.817.325-5.844Z" transform="translate(-127.992 124.793)"/>
    <path id="Path_127" data-name="Path 127" class="cls-1" d="M229.178,121.1c.974,4.22,2.922,5.844,5.844,8.441h0c-3.9-.649-7.467-4.87-5.844-8.441Z" transform="translate(-132.858 132.561)"/>
    <path id="Path_128" data-name="Path 128" class="cls-1" d="M232.694,101.3c-.325,1.3-1.948,4.87-2.6,6.493-1.623,3.571-1.948,5.194-2.6,6.493h0a19.3,19.3,0,0,1,5.194-12.986Z" transform="translate(-135.725 88.081)"/>
    <path id="Path_129" data-name="Path 129" class="cls-1" d="M235.289,101.425h-.974c-9.415.325-11.687,62.981,4.545,74.993h0c-18.18-12.012-14.934-75.642-4.22-75.318.325,0,.649,0,.649.325Z" transform="translate(-139.293 87.631)"/>
    <path id="Path_130" data-name="Path 130" class="cls-1" d="M244.571,78.1a15.525,15.525,0,0,0-8.116,14.609c.325,17.531,15.583,34.737,27.595,37.334,4.545.974,25.647,3.571,31.815.325,3.9-1.948,5.519-5.844,7.791-11.038h.325c-1.948,5.519-3.246,9.739-7.467,12.012-6.818,3.571-27.595,2.273-33.114.974-14.609-3.246-29.543-21.751-28.569-39.931,0-8.765,7.142-13.96,9.739-14.284Z" transform="translate(-119.357 35.964)"/>
    <path id="Path_131" data-name="Path 131" class="cls-1" d="M238.9,79c20.777-8.116,61.358,9.739,61.033,26.3,0,4.545-1.948,8.441-3.571,12.661h-.325c1.3-4.87,2.273-8.116,2.273-12.661C297.661,91.66,259.677,74.454,238.9,79Z" transform="translate(-110.116 33.442)"/>
    <path id="Path_132" data-name="Path 132" class="cls-1" d="M240.267,79.8c-5.194,6.493-1.3,16.882,2.273,24.024,8.116,15.908,22.4,19.8,40.256,19.479,3.246,0,4.87-.649,6.818-2.272h0c-5.519,5.194-25.972,4.87-39.607-4.545-7.791-4.87-18.829-27.595-9.739-36.685Z" transform="translate(-114.73 39.783)"/>
    <path id="Path_133" data-name="Path 133" class="cls-1" d="M238.4,81.969c11.038-9.739,51.294.974,56.488,17.206,1.948,6.493,0,12.661-2.922,18.829h-.325c3.246-8.441,4.22-17.531-1.948-23.7-1.3-1.3-9.415-7.142-19.479-10.713-8.116-3.246-25-6.493-31.815-1.623Z" transform="translate(-111.239 36.316)"/>
    <path id="Path_134" data-name="Path 134" class="cls-1" d="M260.617,82.577c-10.713-.325-21.751,8.441-15.908,25.647,1.948,4.22,2.922,5.194,4.87,7.142l-.325.325c-5.194-2.272-8.116-8.116-8.765-12.336-2.922-15.583,10.064-24.024,20.128-20.777Z" transform="translate(-107.485 44.473)"/>
    <path id="Path_135" data-name="Path 135" class="cls-1" d="M247.2,82.1c11.687,3.246,15.583,15.258,10.389,24.673h-.325c1.948-16.557-6.493-21.1-10.064-24.673Z" transform="translate(-91.47 44.95)"/>
    <path id="Path_136" data-name="Path 136" class="cls-1" d="M250.4,84.3c10.389,6.818,11.687,7.142,11.687,12.986-.325,4.545-.649,7.142-7.467,8.441V105.4c4.87-2.6,5.519-3.246,5.194-7.467a10.8,10.8,0,0,0-.649-4.545c-1.623-2.272-6.493-5.519-8.765-9.09Z" transform="translate(-84.281 49.892)"/>
    <path id="Path_137" data-name="Path 137" class="cls-1" d="M241.3,89.1c1.3.649.974.974,1.623,1.623h0a51.749,51.749,0,0,1,5.194,3.9c.974.974,5.194,4.545,6.818,6.168v.325c-6.818-2.6-12.661-8.765-13.31-10.389A14.047,14.047,0,0,1,241.3,89.1Z" transform="translate(-104.724 60.675)"/>
    <path id="Path_138" data-name="Path 138" class="cls-1" d="M243.9,87.151c8.116-1.948,23.7,4.22,21.751,12.336h-.325c0-3.246-3.571-5.844-6.493-7.467h0a94.421,94.421,0,0,0-14.934-4.87Z" transform="translate(-98.883 55.482)"/>
    <path id="Path_139" data-name="Path 139" class="cls-1" d="M244.9,74c10.389,3.571,32.789,16.232,41.554,24.348v.325C277.364,92.829,258.535,82.765,244.9,74Z" transform="translate(-96.637 26.754)"/>
    <path id="Path_140" data-name="Path 140" class="cls-1" d="M266.789,87.1c.974,8.116-3.9,19.8-10.064,24.348H256.4A86.138,86.138,0,0,0,266.789,87.1Z" transform="translate(-70.803 56.182)"/>
    <path id="Path_141" data-name="Path 141" class="cls-1" d="M260.223,73.088c-.974-1.623,2.273-3.246,4.22-1.623,1.948,2.6-1.948,4.22-3.9,2.6h0c3.571,0,3.571-1.623,1.623-1.948-1.948,0-1.948,1.3-1.948.974Z" transform="translate(-62.614 19.549)"/>
    <path id="Path_142" data-name="Path 142" class="cls-1" d="M285.3,71.578a5.606,5.606,0,0,1,.974-1.3c1.623-.974,3.246-.649,3.9.974V71.9c0,1.3-1.948,2.6-4.545.325h0c1.3,0,3.571.649,3.246-.649-.649-.974-2.272-.325-3.571,0Z" transform="translate(-5.881 17.164)"/>
    <path id="Path_143" data-name="Path 143" class="cls-1" d="M234.084,71.8c-8.441,7.791-10.064,20.128-11.038,48.7a190.272,190.272,0,0,0,.974,23.7H223.7c-4.22-19.479-4.87-61.358,10.389-72.4Z" transform="translate(-150.1 21.811)"/>
    <path id="Path_144" data-name="Path 144" class="cls-1" d="M206.6,95.6c1.948.325,4.87.974,9.415,4.87,10.389,8.441,2.272,6.168,46.424,34.088v.325c-6.818-3.246-17.855-9.09-24.348-13.635-20.777-13.96-21.1-22.076-31.49-25.647Z" transform="translate(-182.676 75.277)"/>
    <path id="Path_145" data-name="Path 145" class="cls-1" d="M209.9,99.2c22.076,23.374,34.737,31.491,45.775,37.01v.325c-18.18-4.545-37.334-22.076-45.775-37.334Z" transform="translate(-175.263 83.364)"/>
    <path id="Path_146" data-name="Path 146" class="cls-1" d="M224.536,47.1A50.921,50.921,0,0,0,212.2,61.06h0c.974-5.519,7.142-12.336,12.337-13.96Z" transform="translate(-170.096 -33.676)"/>
    <path id="Path_147" data-name="Path 147" class="cls-1" d="M212.1,51.5l2.6,1.3h0c-.649.325-.974,0-1.623,0a4.481,4.481,0,0,1-.974-1.3Z" transform="translate(-170.32 -23.792)"/>
    <path id="Path_148" data-name="Path 148" class="cls-1" d="M225,51.5c-3.9,10.389-17.531,36.036-18.18,37.334H206.5A148.439,148.439,0,0,1,225,51.5Z" transform="translate(-182.9 -23.792)"/>
    <path id="Path_149" data-name="Path 149" class="cls-1" d="M207.232,62.9c-1.3,3.9.649,2.6,11.687,8.765.974.649,3.246,1.948,4.545,2.6h0c-3.246-.974-15.258-5.844-16.557-8.116-.974-.974-.649-2.273.325-3.246Z" transform="translate(-183.307 1.818)"/>
    <path id="Path_150" data-name="Path 150" class="cls-1" d="M219.754,63.1c-5.194,5.844-8.116,7.142-11.363,12.986h0c-2.6,6.493-7.142,24.348-7.467,25.647H200.6A98.507,98.507,0,0,1,202.548,88.1c3.9-17.531,5.519-15.908,17.206-25Z" transform="translate(-196.154 2.267)"/>
    <path id="Path_151" data-name="Path 151" class="cls-1" d="M201.9,74.5c13.311,16.557,18.5,48.047,19.479,68.825h-.325C212.289,103.393,210.341,90.083,201.9,74.5Z" transform="translate(-193.234 27.877)"/>
    <path id="Path_152" data-name="Path 152" class="cls-1" d="M201.775,98.526c-4.22-17.206.325-23.05,3.9-17.206,10.713,18.829,12.336,51.294,17.206,60.384a17.041,17.041,0,0,0,12.986,8.116v.325c-18.18-.325-17.531-18.5-23.374-42.2-2.922-12.337-7.791-26.3-9.739-27.27h-.325c-2.6,2.922-1.3,13.31-.649,17.855Z" transform="translate(-197.329 38.263)"/>
    <path id="Path_153" data-name="Path 153" class="cls-1" d="M220.9,69.9c3.9.325,11.687,3.246,13.635,3.9,7.142,2.272,7.791,1.948,9.415,2.272h0c-8.116.325-12.336-1.623-23.05-6.168Z" transform="translate(-150.552 17.543)"/>
    <path id="Path_154" data-name="Path 154" class="cls-1" d="M228.737,70.8v1.623c-.325.649-.325.974-.649,1.3h0c-.325-.649,0-2.6.649-2.922Z" transform="translate(-134.69 19.565)"/>
    <path id="Path_155" data-name="Path 155" class="cls-1" d="M220.6,68.9c.974.325,17.855,5.519,22.4,6.493a1.422,1.422,0,0,1,.974.325h0A50.441,50.441,0,0,1,220.6,68.9Z" transform="translate(-151.226 15.297)"/>
    <path id="Path_156" data-name="Path 156" class="cls-1" d="M206.5,63.1c2.272.325,15.258,4.22,19.8,7.791h0c-5.844-1.623-14.609-4.545-19.8-7.791Z" transform="translate(-182.9 2.267)"/>
    <path id="Path_157" data-name="Path 157" class="cls-1" d="M208.037,63.5c.325.325,0,.974,0,1.3-.325.325-.325.649-.649,1.3h0c-.325-.974,0-1.623.649-2.6Z" transform="translate(-181.191 3.166)"/>
    <path id="Path_158" data-name="Path 158" class="cls-1" d="M242.976,78.771c2.922-19.154-36.36-12.012-28.893,2.273,1.3,1.623,9.09,8.116,21.1,6.818v.325c-6.168,1.623-11.687,1.3-17.531-1.948-4.545-2.273-8.116-4.545-7.142-10.389,1.948-12.661,31.815-16.557,33.114-.325a3.775,3.775,0,0,1-.649,3.246Z" transform="translate(-174.251 6.075)"/>
    <path id="Path_159" data-name="Path 159" class="cls-1" d="M218.3,76.982c-1.3-3.571,1.948-10.064,5.844-8.765,2.922.649,7.791,12.012,8.441,14.934h-.325c-7.467-11.687-8.116-12.986-9.415-13.31-1.948-.325-4.545,5.194-4.545,7.142Z" transform="translate(-157.043 13.382)"/>
    <path id="Path_160" data-name="Path 160" class="cls-1" d="M218.3,72.125c.325.649.974,1.623,1.623,1.623h0s.974,0,1.3-.325c1.948-.325,5.194-1.3,7.142-1.623h0c-2.273,1.948-9.739,5.844-10.064.325Z" transform="translate(-156.392 21.811)"/>
    <path id="Path_161" data-name="Path 161" class="cls-1" d="M218.7,72.8c2.6,3.9,3.246,10.713,3.571,12.012l-.325-.649h0l.649.325h0c2.922,0,1.623-1.3,6.168-5.519h.325c-2.922,5.844-3.246,7.791-6.493,7.467-2.6-.325-2.272-1.623-2.6-3.571s-.649-6.818-1.3-10.064Z" transform="translate(-155.494 24.058)"/>
    <path id="Path_162" data-name="Path 162" class="cls-1" d="M228.2,78.864C328.84,73.994,357.408,73.67,453.5,68.8h0c-74.019,5.519-124.664,6.818-190.242,9.09-8.765.325-9.09.325-35.062.974Z" transform="translate(-134.153 15.072)"/>
    <path id="Path_163" data-name="Path 163" class="cls-1" d="M215.8,55.015c11.038-9.415,23.374-12.661,37.983-11.038,10.064.974,11.363,2.273,14.934,9.415-18.5,1.623-4.545-3.246-24.348-5.194v-.325c5.194-.325,11.038,0,14.609,2.922,1.948,1.623,0,.974,6.168.325v.325c-2.272-4.22-6.493-4.22-11.363-4.545-18.5-1.3-27.919,2.273-37.983,8.116Z" transform="translate(-162.008 -41.591)"/>
    <path id="Path_164" data-name="Path 164" class="cls-1" d="M215.9,51.712c12.661-6.168,25.322-8.765,41.555-4.22h0c-25.972-2.6-30.841.974-41.555,4.22Z" transform="translate(-161.784 -37.964)"/>
    <path id="Path_165" data-name="Path 165" class="cls-1" d="M368.574,49.023C267.285,46.1,250.4,45.777,230.6,49.348v-.325c30.841-9.739,105.509-3.571,137.974,0Z" transform="translate(-128.761 -41.118)"/>
    <path id="Path_166" data-name="Path 166" class="cls-1" d="M304.55,50.545a18.008,18.008,0,0,0,5.519.974h-.325c0-5.194-28.893-8.441-50.645-2.922v-.325c14.284-6.818,30.841-6.493,46.424-2.273,1.948.649,4.545,2.273,5.519,4.22a7.148,7.148,0,0,1,.325,2.6,11.822,11.822,0,0,1-6.818-2.273Z" transform="translate(-64.737 -42.965)"/>
    <path id="Path_167" data-name="Path 167" class="cls-1" d="M261.5,45.425c9.09-1.3,29.543-2.6,37.334,2.273h0c-8.116-2.922-31.815-1.948-37.334-2.273Z" transform="translate(-59.346 -40.117)"/>
    <path id="Path_168" data-name="Path 168" class="cls-1" d="M275.1,45.812c5.194-.325,12.661,3.9,13.96,8.116a1.006,1.006,0,0,1,.325.649h0c-2.6-3.9-10.064-7.142-14.284-8.765Z" transform="translate(-28.794 -36.608)"/>
    <path id="Path_169" data-name="Path 169" class="cls-1" d="M228.5,52.646c41.554-4.22,113.3-6.818,165.244-2.922v.325c-45.775,0-121.092,1.623-165.244,2.6Z" transform="translate(-133.479 -32.08)"/>
    <path id="Path_170" data-name="Path 170" class="cls-1" d="M263.1,50.244a10.379,10.379,0,0,0-2.273.325c-32.789,1.948-39.607-2.6-47.4,5.844H213.1c5.194-8.765,14.609-8.116,50-6.168Z" transform="translate(-168.074 -29.354)"/>
    <path id="Path_171" data-name="Path 171" class="cls-1" d="M223.534,52c-.649,1.3-9.415,21.1-13.96,36.685a13.656,13.656,0,0,1-.649,1.623H208.6c2.273-13.96,6.168-25.972,14.934-38.308Z" transform="translate(-178.183 -22.668)"/>
    <path id="Path_172" data-name="Path 172" class="cls-1" d="M230.858,49.9C223.391,65.158,218.2,79.443,215.6,97.947h0c0-15.908,7.142-36.36,15.258-48.047Z" transform="translate(-162.458 -27.386)"/>
    <path id="Path_173" data-name="Path 173" class="cls-1" d="M229.857,50.1c-6.818,11.038-13.31,28.893-15.908,48.7h-.325c-.649-18.5,7.467-38.308,16.232-48.7Z" transform="translate(-166.976 -26.937)"/>
    <path id="Path_174" data-name="Path 174" class="cls-1" d="M213.1,56.6c2.6-3.571,4.22-7.467,16.882-6.493h0s-1.3.325-2.922.649C215.372,52.7,217,54,213.1,56.6Z" transform="translate(-168.074 -27.266)"/>
    <path id="Path_175" data-name="Path 175" class="cls-1" d="M222.291,55.4c-2.6,8.765-4.87,18.18-7.791,30.841h0A126.5,126.5,0,0,1,222.291,55.4Z" transform="translate(-164.929 -15.03)"/>
    <path id="Path_176" data-name="Path 176" class="cls-1" d="M222.97,49.8c-2.922,5.844-1.948,3.571-4.87,9.415h0c.325-2.922,3.246-7.791,4.87-9.415Z" transform="translate(-156.842 -27.61)"/>
    <path id="Path_177" data-name="Path 177" class="cls-1" d="M220.8,50.467c4.22-1.3,12.986-.649,16.882,1.3h0c-10.389-.649-6.818-.325-16.882-1.3Z" transform="translate(-150.776 -27.629)"/>
    <path id="Path_178" data-name="Path 178" class="cls-1" d="M225.742,63.2V86.25h0c-1.623-5.844-1.623-18.18,0-23.05Z" transform="translate(-142.408 2.492)"/>
    <path id="Path_179" data-name="Path 179" class="cls-1" d="M226.993,64.6a78.344,78.344,0,0,1-3.571,16.881h0c-.325-3.9,1.948-13.31,3.571-16.881Z" transform="translate(-144.957 5.637)"/>
    <path id="Path_180" data-name="Path 180" class="cls-1" d="M231.353,49.4c-.649,15.908-1.623,50-.974,70.448h-.325c-3.571-18.5-3.571-49.021,1.3-70.448Z" transform="translate(-135.682 -28.509)"/>
    <path id="Path_181" data-name="Path 181" class="cls-1" d="M229.876,50.8c-1.948,11.687-3.246,25.972-4.22,37.659h-.325c-1.948-12.986.974-30.192,4.545-37.659Z" transform="translate(-141.997 -25.364)"/>
    <path id="Path_182" data-name="Path 182" class="cls-1" d="M279.4,48.5c17.531,10.389,42.2,45.775,52.268,63.955h-.325C309.917,84.86,292.061,58.889,279.4,48.5Z" transform="translate(-19.135 -30.531)"/>
    <path id="Path_183" data-name="Path 183" class="cls-1" d="M349.586,50.184c-15.908.974-81.81,2.273-103.886.974v-.325c25.972-.649,69.149-2.273,103.886-.649Z" transform="translate(-94.84 -28.319)"/>
    <path id="Path_184" data-name="Path 184" class="cls-1" d="M278.015,50c-23.05,2.6-40.905,1.623-45.126,9.09-2.273,3.9-.974,37.659.325,42.528.974,3.246,2.6,5.194,5.194,7.467v.325a15.173,15.173,0,0,1-5.844-7.467c-1.948-5.519-4.22-38.957-1.3-43.827,4.545-8.116,19.8-7.467,46.749-8.116Z" transform="translate(-130.401 -27.161)"/>
    <path id="Path_185" data-name="Path 185" class="cls-1" d="M278.4,49.7c10.713,0,43.178,44.152,41.555,51.294-.974,6.168-9.09,5.194-14.934,3.571v-.325c7.467,1.3,16.232.325,12.986-6.818C316.059,92.553,288.139,51,278.4,49.7Z" transform="translate(-21.381 -27.835)"/>
    <path id="Path_186" data-name="Path 186" class="cls-1" d="M298.849,50.828c-1.3,0-49.021,1.623-57.137,2.922-11.363,1.623-9.09,4.87-9.415,50.645h0c-1.3-41.23-1.948-47.4,4.22-50.32,6.818-3.9,57.137-3.246,62.332-3.246Z" transform="translate(-126.887 -25.392)"/>
    <path id="Path_187" data-name="Path 187" class="cls-1" d="M252.9,51.694c1.3,0,60.709-4.22,73.37,2.6,2.273,1.3,3.9,3.246,5.844,4.87h0c-9.739-9.09-17.206-7.142-79.213-7.467Z" transform="translate(-78.665 -26.258)"/>
    <path id="Path_188" data-name="Path 188" class="cls-1" d="M277.8,53.7c1.948,1.623,23.374,20.777,29.543,39.607h-.325C298.253,77.4,285.916,65.387,277.8,53.7Z" transform="translate(-22.729 -18.849)"/>
    <path id="Path_189" data-name="Path 189" class="cls-1" d="M278.6,64.658c7.142-.649,21.427,2.6,25.322,4.545h0c-15.583-2.6-10.064-1.623-25.322-4.545Z" transform="translate(-20.932 5.578)"/>
    <path id="Path_190" data-name="Path 190" class="cls-1" d="M272.8,51.5c2.272,2.6,14.934,21.751,18.18,40.256h-.325c-4.22-11.038-13.31-30.192-17.855-40.256Z" transform="translate(-33.961 -23.792)"/>
    <path id="Path_191" data-name="Path 191" class="cls-1" d="M293.979,73.6c-3.9-19.8,37.659-12.986,26.3,5.194-2.273,3.571-7.142,5.519-11.363,6.493v-.325l1.948-.974c26.945-13.96-15.908-30.841-16.882-10.389Z" transform="translate(13.035 -1.091)"/>
    <path id="Path_192" data-name="Path 192" class="cls-1" d="M295.2,68.722a5.176,5.176,0,0,1,4.545-2.922c2.272,0,4.87,1.3,4.545,3.9-.325,2.272-.974,1.948-1.948,3.571h0c0-1.3.974-2.273.974-2.922,0-3.246-5.194-4.22-8.116-1.623Z" transform="translate(16.359 8.333)"/>
    <path id="Path_193" data-name="Path 193" class="cls-1" d="M232.3,55.558c5.844-1.948,29.218-6.168,37.659-2.6h0a11.072,11.072,0,0,1,4.545,7.791h-.325a12.8,12.8,0,0,0-4.22-5.519c-2.922-2.922-19.8.325-37.659.325Z" transform="translate(-124.942 -23.629)"/>
    <path id="Path_194" data-name="Path 194" class="cls-1" d="M252.829,54.5c-5.844,2.273-8.765,7.791-8.765,14.284,0,.325,6.168,13.635,0,.649h0a4.624,4.624,0,0,1,1.3.649l4.22.649c10.064.974,17.531.974,19.154.974v.325c-5.194.649-25.972,2.922-26.621-1.623-.974-5.519,2.272-14.284,10.713-15.908Z" transform="translate(-103.267 -17.052)"/>
    <path id="Path_195" data-name="Path 195" class="cls-1" d="M246.1,54.968c16.881-5.194,18.5,15.908,14.284,17.206h0s2.6-.974.325-8.116c-1.3-4.22-2.6-5.194-3.9-6.493-2.922-2.922-5.194-2.922-10.713-2.6Z" transform="translate(-93.941 -17.845)"/>
    <path id="Path_196" data-name="Path 196" class="cls-1" d="M231.925,53.563c15.583-1.623,16.232,18.829,14.284,23.05-.649,2.273-2.922,3.246-14.609,1.623v-.325c12.337-.974,12.986-.325,12.986-3.9.649-10.389-1.948-19.479-12.661-20.453Z" transform="translate(-126.515 -19.362)"/>
    <path id="Path_197" data-name="Path 197" class="cls-1" d="M233.605,61.5v3.571h0a2.548,2.548,0,0,1,0-3.571Z" transform="translate(-123.65 -1.327)"/>
    <path id="Path_198" data-name="Path 198" class="cls-1" d="M232.6,61.445c0-.325.649.649.649,1.3a3.5,3.5,0,0,1-.649,2.6h0v-3.9Z" transform="translate(-124.268 -1.596)"/>
    <path id="Path_199" data-name="Path 199" class="cls-1" d="M238.3,61.172a60.367,60.367,0,0,1,13.31-.325v.325c-3.246,1.623-9.739,2.273-13.31,0Z" transform="translate(-111.463 -3.272)"/>
    <path id="Path_200" data-name="Path 200" class="cls-1" d="M281.106,69.818c-3.571-2.922-13.96-3.571-17.206,0h0c2.272-6.168,14.284-5.844,17.206,0Z" transform="translate(-53.954 7.237)"/>
    <path id="Path_201" data-name="Path 201" class="cls-1" d="M284.543,71.734c-6.818-6.168-21.751-5.519-29.543-.649V70.76c6.168-7.467,24.348-8.116,29.543.974Z" transform="translate(-73.948 6.619)"/>
    <path id="Path_202" data-name="Path 202" class="cls-1" d="M268.429,72.007c-6.168-6.493-17.206-4.22-18.5-.974H249.6c.325-5.844,15.258-8.441,18.829.974Z" transform="translate(-86.079 8.293)"/>
    <path id="Path_203" data-name="Path 203" class="cls-1" d="M261.2,70.068c8.441-2.922,23.374-4.22,30.841-3.246v.325h0c-9.09.649-21.1,1.623-30.841,2.922Z" transform="translate(-60.02 9.909)"/>
    <path id="Path_204" data-name="Path 204" class="cls-1" d="M261.253,69.2c.325,3.246,1.3-.325,18.829-1.948a140.138,140.138,0,0,1,20.453.325h0c-8.116.325-14.284.649-20.453.974-16.232,1.623-19.479,4.545-18.829.649Z" transform="translate(-60.073 11.105)"/>
    <path id="Path_205" data-name="Path 205" class="cls-1" d="M271.7,67.038c3.9-1.3,14.284-2.6,21.427,0,0,0,20.777-.325,24.348.649.649.325,1.623.649,1.948,1.3.325.325,0,.974,0,1.3h0c0-.974.325-1.3-1.948-1.948-1.623-.325-23.7.649-25.972-.325-5.194-1.948-14.284-1.3-19.8-.974Z" transform="translate(-36.432 7.744)"/>
    <path id="Path_206" data-name="Path 206" class="cls-1" d="M274.4,67.851c6.818-1.623,21.751-.974,26.945.649h0c-16.232-.325-10.713-.325-26.945-.649Z" transform="translate(-30.367 10.827)"/>
    <path id="Path_207" data-name="Path 207" class="cls-1" d="M228.7,76.367C372.518,70.2,346.871,71.5,396.541,68.9h0c-29.867,2.6-47.723,3.9-114.6,6.168-21.1.974-51.943,1.3-53.242,1.3Z" transform="translate(-133.029 15.297)"/>
    <path id="Path_208" data-name="Path 208" class="cls-1" d="M281.1,70.6c8.116-1.3,28.569-2.6,46.1-2.6,2.273,0,8.116-.325,7.467,2.6h0c.325-2.922,0-1.948-53.566,0Z" transform="translate(-15.316 13.267)"/>
    <path id="Path_209" data-name="Path 209" class="cls-1" d="M251.6,69.03c8.441-2.272,25.647-1.948,30.192-1.3h0c-18.5,1.3-12.012.974-30.192,1.3Z" transform="translate(-81.586 11.596)"/>
    <path id="Path_210" data-name="Path 210" class="cls-1" d="M268.5,68.911c6.493-3.9,20.453-6.493,24.673-1.3h-.325c-4.22-2.922-17.206,0-24.348,1.3Z" transform="translate(-43.621 5.871)"/>
    <path id="Path_211" data-name="Path 211" class="cls-1" d="M265.5,75.167c2.6-8.441,12.661-12.986,22.076-13.635,9.739-.649,19.479,5.519,20.453,14.934H307.7c-4.545-17.531-34.412-15.908-42.2-1.3Z" transform="translate(-50.36 -1.359)"/>
    <path id="Path_212" data-name="Path 212" class="cls-1" d="M266.6,72.151c6.168-11.363,31.491-13.31,36.36.649h-.325c-2.922-4.87-7.791-8.765-21.1-7.142-6.168.974-10.713,1.948-14.934,6.493Z" transform="translate(-47.889 1.982)"/>
    <path id="Path_213" data-name="Path 213" class="cls-1" d="M256.144,51a45.35,45.35,0,0,1,1.948,7.791c.649,5.194,0,4.545,0,4.545.325.325,1.623.325,2.273.325h0a7.148,7.148,0,0,1-2.6.325c-.974-.325-1.948-12.012-1.623-12.986Z" transform="translate(-71.521 -24.915)"/>
    <path id="Path_214" data-name="Path 214" class="cls-1" d="M261.819,52.909c7.142-1.623,14.934-.325,17.531,1.623a24.791,24.791,0,0,1,2.922,2.922c2.6,3.246,2.6,4.22,2.922,5.844.325,9.09.649,11.687-1.3,13.31-2.273,1.623-20.128,1.948-27.595,1.3h0c5.519,0,25.647-.974,26.945-2.273,1.3-.974.974-2.922.649-12.012,0-2.6-2.6-5.519-4.545-7.467-1.3-1.3-2.922-1.948-7.142-2.922a38.423,38.423,0,0,0-10.389-.325Z" transform="translate(-71.027 -22.278)"/>
    <path id="Path_215" data-name="Path 215" class="cls-1" d="M255.05,56.5c-.325,1.623.325,9.739,4.545,11.363h0a5.608,5.608,0,0,1-2.272-.649,6.536,6.536,0,0,1-2.6-2.6c0-.325-.325-.649-.325-.974-.325-1.948-.649-5.194.649-7.142Z" transform="translate(-75.946 -12.559)"/>
    <path id="Path_216" data-name="Path 216" class="cls-1" d="M266.479,52.718c-18.18,2.922-16.881,7.142-8.116,8.765,7.467,1.3,2.922.649,12.012,1.948h0c-28.893.649-22.076-11.363-3.9-10.713Z" transform="translate(-83.479 -21.113)"/>
    <path id="Path_217" data-name="Path 217" class="cls-1" d="M258.848,52.859a30.221,30.221,0,0,1,9.739,0c13.635,1.623,12.986,12.986-10.064,11.687a3.939,3.939,0,0,1-1.623-.325h0c28.893-.974,21.751-12.336,1.948-11.363Z" transform="translate(-69.68 -21.58)"/>
    <path id="Path_218" data-name="Path 218" class="cls-1" d="M257.3,52.5c.974,1.3.974,4.22.325,5.519h0A31.491,31.491,0,0,1,257.3,52.5Z" transform="translate(-68.781 -21.545)"/>
    <path id="Path_219" data-name="Path 219" class="cls-1" d="M257.243,54.264c-.325-2.273.649-3.246,2.6-2.922h0c-.325.325-1.3.649-1.623.974h0a10.794,10.794,0,0,0-.974,1.948Z" transform="translate(-69.048 -24.283)"/>
    <path id="Path_220" data-name="Path 220" class="cls-1" d="M251.527,60.9c-12.661,5.194-10.389,8.441-10.064,19.154h0c-3.9-12.337-.325-17.855,10.064-19.154Z" transform="translate(-107.809 -2.675)"/>
    <path id="Path_221" data-name="Path 221" class="cls-1" d="M236.4,60.232c8.765-1.623,12.012,7.467,9.739,12.986h0a16.571,16.571,0,0,0-.325-2.922c-.974-6.818-3.246-8.765-9.415-10.064Z" transform="translate(-115.732 -4.604)"/>
    <path id="Path_222" data-name="Path 222" class="cls-1" d="M265.3,51.4c9.09,6.493,19.154,24.673,13.31,35.711h-.325C281.857,75.424,270.17,56.919,265.3,51.4Z" transform="translate(-50.809 -24.016)"/>
    <path id="Path_223" data-name="Path 223" class="cls-1" d="M264.4,62.364c3.9-.974,11.363,0,14.609,1.948h0c-9.09-.974-5.844-.649-14.609-1.948Z" transform="translate(-52.831 -0.244)"/>
    <path id="Path_224" data-name="Path 224" class="cls-1" d="M265.2,62.9a6.083,6.083,0,0,1,3.571,4.545h0c-.974-1.3-1.623-1.948-3.571-4.545Z" transform="translate(-51.034 1.818)"/>
    <path id="Path_225" data-name="Path 225" class="cls-1" d="M265.5,61.5c-8.116,5.519-8.441,7.467-10.389,10.389h0c-.325.649-1.948,4.87-2.272,5.194h-.325c-.325-5.519,3.9-14.284,12.986-15.583Z" transform="translate(-79.576 -1.327)"/>
    <path id="Path_226" data-name="Path 226" class="cls-1" d="M257.4,62.854c2.922-1.3,12.661-2.922,16.881-1.623a12.4,12.4,0,0,1,6.168,5.194h0c-1.948-1.623-3.9-3.246-6.493-3.9-2.922-.974-13.635,0-16.557.325Z" transform="translate(-68.556 -3.005)"/>
    <path id="Path_227" data-name="Path 227" class="cls-1" d="M257.649,60.4V63h0a1.623,1.623,0,0,1,0-2.6Z" transform="translate(-69.455 -3.798)"/>
    <path id="Path_228" data-name="Path 228" class="cls-1" d="M256.9,60.3c.325.649.325.974.649,1.623,0,.649-.325.974-.649,1.623h0c-.325-1.623,0-1.623,0-3.246Z" transform="translate(-70.004 -4.023)"/>
    <path id="Path_229" data-name="Path 229" class="cls-1" d="M251.3,60.514c3.571-.325,7.467,3.246,7.792,5.519h0c-1.623-1.3-5.844-3.9-7.792-5.519Z" transform="translate(-82.26 -3.588)"/>
    <path id="Path_230" data-name="Path 230" class="cls-1" d="M260.233,55.061c-.974-2.273-.325-2.922.649-3.246,1.623-.649,11.038-1.623,16.232,0h0c-18.18.974-16.557-.325-16.882,3.246Z" transform="translate(-63.274 -25.08)"/>
    <path id="Path_231" data-name="Path 231" class="cls-1" d="M231.7,63.726A5.119,5.119,0,0,0,233,63.4c7.467-1.3,15.583-2.273,22.4,5.844.649.974,1.3,1.623,1.3,2.272h0c-.974-1.623-1.948-1.948-2.922-2.922-5.519-3.571-8.441-5.519-22.076-4.87Z" transform="translate(-126.29 0.992)"/>
    <path id="Path_232" data-name="Path 232" class="cls-1" d="M211.668,76.2c-.649,29.543,4.545,49.021,5.844,58.111.974,5.519-.649,11.363.649,17.531h-.325c-1.948-5.844-.974-11.038-1.948-16.882-1.948-9.09-8.441-32.14-4.22-58.761Z" transform="translate(-174.433 31.696)"/>
    <path id="Path_233" data-name="Path 233" class="cls-1" d="M215.886,64.8a107.261,107.261,0,0,1-8.765,9.739h0c-.974,1.3-3.571,7.791-4.22,9.09h0c1.948-10.389,3.9-11.363,12.986-18.829Z" transform="translate(-190.988 6.086)"/>
    <path id="Path_234" data-name="Path 234" class="cls-1" d="M208.049,76.375c-2.922-.649-6.818-1.623-5.844-4.22.325-.974,1.623-1.623,3.246-.974l-.325,1.3c-1.623-.649-1.948.649-1.3.974.974.649,6.493,2.272,7.142,1.623a26.278,26.278,0,0,0-4.22-1.948l.325-1.3s5.194,1.3,5.519,2.922C212.919,76.7,210.646,77.024,208.049,76.375Z" transform="translate(-192.89 19.833)"/>
    <path id="Path_235" data-name="Path 235" class="cls-1" d="M208.145,74.871l-1.3-.325c.325-.649.325-3.246-.325-3.246-.325,0-1.3,1.3-1.623,1.948l-1.3-.325c.325-1.3,2.6-4.22,4.22-2.272C208.47,71.3,208.47,73.572,208.145,74.871Z" transform="translate(-189.415 17.767)"/>
    <path id="Path_236" data-name="Path 236" class="cls-1" d="M203.447,72.6l1.3.325c-.325,2.922,1.3,3.246,1.623,0l1.3.325C207.018,78.444,202.8,77.145,203.447,72.6Z" transform="translate(-189.911 23.608)"/>
    <path id="Path_237" data-name="Path 237" class="cls-1" d="M211.68,79.505a2.8,2.8,0,0,1-1.3-3.246c.325-2.272,2.273-1.948,3.571-1.948v1.3c-1.3,0-1.948,0-2.272.974,0,.325-.325.974.974,1.623.649.649,6.168.649,6.818.325a.318.318,0,0,0-.325.325l1.3.325C220.12,80.8,212.978,80.155,211.68,79.505Z" transform="translate(-174.445 27.416)"/>
    <path id="Path_238" data-name="Path 238" class="cls-1" d="M216.47,78.62c-.974-1.3-3.246-2.272-4.87-2.922l.325-1.3c1.623.325,4.545,1.623,5.519,3.246Z" transform="translate(-171.444 27.652)"/>
    <path id="Path_239" data-name="Path 239" class="cls-1" d="M216.345,78.628l-1.3-.325c.325-1.623-.325-3.571-.649-3.571h-.325A5,5,0,0,0,213.1,77l-1.3-.325c.649-3.571,2.922-4.22,3.9-2.6A4.439,4.439,0,0,1,216.345,78.628Z" transform="translate(-170.994 25.048)"/>
    <path id="Path_240" data-name="Path 240" class="cls-1" d="M211.622,76.1h1.3a6.984,6.984,0,0,0,.649,3.246c.649.325.974-1.623.974-2.272l1.3.325c-.325,1.3-.325,2.6-1.3,3.246S211.3,80,211.622,76.1Z" transform="translate(-171.465 31.471)"/>
    <path id="Path_241" data-name="Path 241" class="cls-1" d="M209.279,82.2a22.63,22.63,0,0,0-4.545,6.818c-.649,2.273-6.168,52.917,1.3,66.228,1.3,2.273,6.168,7.467,10.713,7.791v.325c-3.571.325-7.467-2.273-10.064-4.87-10.064-9.09-7.142-43.827-5.519-57.462.649-8.116,1.623-14.284,8.116-18.829Z" transform="translate(-198.665 45.174)"/>
    <path id="Path_242" data-name="Path 242" class="cls-1" d="M204.8,119.455c6.168-1.948,15.258-2.273,16.557-2.273h0c3.246-.974,4.87-11.363,6.493-15.583h.325c0,5.844-.649,17.855-6.493,18.5-2.922-.325-14.284-.325-16.882-.649Z" transform="translate(-186.719 88.755)"/>
    <path id="Path_243" data-name="Path 243" class="cls-1" d="M206.419,86.283s-2.6-.649-3.571,8.116c-.325,3.9-.974,45.126,3.246,45.775,1.623.325,2.273-2.6,2.922-4.22h0c-.649,1.3-.974,4.545-3.246,4.545-2.922-.325-4.545-15.908-4.87-18.829v-5.844c.325-16.232,0-23.374,2.922-28.569,1.3-1.623,2.6-1.3,2.6-.974Z" transform="translate(-195.481 53.752)"/>
    <path id="Path_244" data-name="Path 244" class="cls-1" d="M202.6,86c4.87,2.6,8.441,32.464,2.6,50h0c3.246-19.154,1.3-47.073-2.6-50Z" transform="translate(-191.662 53.711)"/>
    <path id="Path_245" data-name="Path 245" class="cls-1" d="M201.9,91.318a1,1,0,0,1,.325-.649,1.449,1.449,0,0,1,1.623,0c1.3.649,1.3,2.272,1.623,4.545a50.26,50.26,0,0,1,.325,7.142h0a22.033,22.033,0,0,1-1.623-8.116c0-.974.325-1.623-.325-2.6a1.193,1.193,0,0,0-.974-.325c-.649-.325-.649,0-.974,0Z" transform="translate(-193.234 63.651)"/>
    <path id="Path_246" data-name="Path 246" class="cls-1" d="M201.8,94.168c0-2.272,1.948-5.844,4.22-6.168h0c-1.948.974-3.246,3.9-4.22,6.168Z" transform="translate(-193.459 58.204)"/>
    <path id="Path_247" data-name="Path 247" class="cls-1" d="M202.2,99.5c2.273,2.922,1.3,1.948,3.571,4.87h0A8.092,8.092,0,0,1,202.2,99.5Z" transform="translate(-192.56 84.038)"/>
    <path id="Path_248" data-name="Path 248" class="cls-1" d="M260,122.794c4.545-10.389,7.467-21.1,17.855-25.972C291.815,90,385.313,86.433,399.922,85.784c17.855-.649,22.4-1.3,27.27,4.545h0c-5.194-5.844-9.739-4.87-26.945-3.9-57.137,2.6-101.938,6.818-111.353,8.116C270.064,97.8,268.116,106.237,260,122.794Z" transform="translate(-62.716 52.303)"/>
    <path id="Path_249" data-name="Path 249" class="cls-1" d="M329.822,88.5c1.3,1.3,10.064,13.635,4.545,19.8-4.22,4.545-23.7,6.818-29.867,6.493h0c2.922-.325,9.415-1.3,15.908-2.6,12.986-2.922,17.531-3.9,12.661-16.557a69.389,69.389,0,0,0-3.246-7.142Z" transform="translate(37.251 59.327)"/>
    <path id="Path_250" data-name="Path 250" class="cls-1" d="M259.9,99.5c3.9,5.194,4.545,4.545,43.178,3.246,26.945-.974,74.019-4.22,96.744-5.844h0c-38.308,4.22-81.161,7.467-119.469,7.467-14.284,0-17.206.325-20.453-4.87Z" transform="translate(-62.94 78.197)"/>
    <path id="Path_251" data-name="Path 251" class="cls-1" d="M224.7,76.4c0,1.3-.649,15.583,0,17.531.974,2.6,1.623,2.6,1.623,2.6h0a2.513,2.513,0,0,1-.974-.325,6.513,6.513,0,0,1-2.273-5.519c-.325-3.9,0-10.389,1.623-14.284Z" transform="translate(-145.912 32.145)"/>
    <path id="Path_252" data-name="Path 252" class="cls-1" d="M225.355,76.3c.649,4.22,0,15.258-.974,19.479h0a75.352,75.352,0,0,1,.974-19.479Z" transform="translate(-143.319 31.92)"/>
    <path id="Path_253" data-name="Path 253" class="cls-1" d="M223.5,76.884c.649-.974,2.6-.974,3.246-.649h0a11.536,11.536,0,0,1-3.246.649Z" transform="translate(-144.711 31.337)"/>
    <path id="Path_254" data-name="Path 254" class="cls-1" d="M310.3,122.589c8.441-1.623,12.986-3.571,18.18-10.389h0c-2.6,7.142-11.038,11.363-18.18,10.389Z" transform="translate(50.281 112.568)"/>
    <path id="Path_255" data-name="Path 255" class="cls-1" d="M257.7,115.9c2.922.974,15.258,6.493,18.5,8.765h0a54.037,54.037,0,0,1-18.5-8.765Z" transform="translate(-67.882 120.88)"/>
    <path id="Path_256" data-name="Path 256" class="cls-1" d="M246.8,105.6c37.659,7.791,149.661-.649,187.969-3.9v.325C397.11,107.544,289.978,117.932,246.8,105.6Z" transform="translate(-92.369 88.98)"/>
    <path id="Path_257" data-name="Path 257" class="cls-1" d="M317.4,83.907c5.519-.325,9.739,7.791,3.9,13.31h0a22.363,22.363,0,0,0,1.3-3.246c.974-5.519-1.948-8.765-5.194-10.064Z" transform="translate(66.23 48.987)"/>
    <path id="Path_258" data-name="Path 258" class="cls-1" d="M315.2,86.818a2.5,2.5,0,0,1,4.545,0c1.3,2.6-.974,4.22-2.272,3.9h0c2.922-1.3,1.3-5.519-2.273-3.9Z" transform="translate(61.288 52.244)"/>
    <path id="Path_259" data-name="Path 259" class="cls-1" d="M251.424,90.9c-.974-.325-1.623,0-2.273.974h0c0,.325-.325.325-.325.649,0,0,.325.649.649.649h0c.325.325,1.623.649,1.948,0h0s0,.974-1.3,1.3c-2.273.325-4.22-1.948-2.273-3.571.649-.325.974-.649,1.623-.649a1.808,1.808,0,0,1,1.948.649Z" transform="translate(-91.798 63.1)"/>
    <path id="Path_260" data-name="Path 260" class="cls-1" d="M317.9,78.9c3.9,2.272,7.467,10.064,4.22,15.258h0c.974-6.493-2.272-12.336-4.22-15.258Z" transform="translate(67.354 37.761)"/>
    <path id="Path_261" data-name="Path 261" class="cls-1" d="M242.2,120.6c1.3.325,41.555,6.168,69.8,6.168v.325c-18.18,2.922-41.879.649-59.085-3.246,0-.325-10.389-2.922-10.713-3.246Z" transform="translate(-102.702 131.438)"/>
    <path id="Path_262" data-name="Path 262" class="cls-1" d="M322.7,116.086c3.246-4.545.974-8.116,3.571-12.986h0c0,7.142.325,11.363-3.571,12.986Z" transform="translate(78.137 92.125)"/>
    <path id="Path_263" data-name="Path 263" class="cls-1" d="M316.122,109.4c.325,1.3,1.3,3.246,2.922,3.571.974.325,6.168-.649,7.791-.974h0c-1.948,1.623-11.363,5.844-10.713-2.6Z" transform="translate(63.288 106.278)"/>
    <path id="Path_264" data-name="Path 264" class="cls-1" d="M317.029,109.32c.974,3.246,2.273,3.9,3.571,4.22h.325c4.87-.325,5.194-6.818.974-8.441h0c3.9.649,4.87,4.22,3.571,7.142-1.948,4.545-9.09,3.246-8.441-2.922Z" transform="translate(65.303 96.618)"/>
    <path id="Path_265" data-name="Path 265" class="cls-1" d="M318.249,105.4c1.623,1.948.649,6.493-.325,6.818H317.6a41.518,41.518,0,0,1,.325-6.818Z" transform="translate(66.68 97.292)"/>
    <path id="Path_266" data-name="Path 266" class="cls-1" d="M318.3,105.7c.974,1.3,1.3,4.545,0,6.168h0c-.325-3.9,0-2.6,0-6.168Z" transform="translate(67.928 97.966)"/>
    <path id="Path_267" data-name="Path 267" class="cls-1" d="M318.6,105.5l.325.649c.325,1.623.649,1.948,0,4.22l-.325.649h0V105.5Z" transform="translate(68.926 97.517)"/>
    <path id="Path_268" data-name="Path 268" class="cls-1" d="M319.325,105.9c.974.974.974,3.246-.325,3.9h0c.325-2.6,0-1.623.325-3.9Z" transform="translate(69.825 98.415)"/>
    <path id="Path_269" data-name="Path 269" class="cls-1" d="M310.9,119.967c1.3-2.6,5.519-5.519,7.791-7.467h0c-.974,3.246-4.545,5.844-7.791,7.467Z" transform="translate(51.629 113.242)"/>
    <path id="Path_270" data-name="Path 270" class="cls-1" d="M249.643,112.749a15.967,15.967,0,0,0,1.3,6.818c1.948,3.9,4.22,4.22,6.818,4.87v.325s-.325.325,0,.325h0l.325-.325,2.273-.325A11.077,11.077,0,0,0,267.5,112.1h0c1.948,4.22-.649,10.064-3.571,12.336-3.571,3.246-15.258,2.922-14.609-9.739a4.713,4.713,0,0,1,.325-1.948Z" transform="translate(-86.771 112.343)"/>
    <path id="Path_271" data-name="Path 271" class="cls-1" d="M255.8,110.106c5.519-.325,10.064,9.09,4.87,13.635h-.325l.325-1.3c.974-2.6.325-8.765-4.87-12.336Z" transform="translate(-72.151 107.845)"/>
    <path id="Path_272" data-name="Path 272" class="cls-1" d="M251.025,121.251c2.272,3.9,9.415,3.571,11.038-.974,3.246-8.116-8.765-11.687-11.363-3.9h0a6.244,6.244,0,0,1,5.844-5.519c5.519-.974,10.064,6.168,6.168,11.687-2.922,3.571-10.064,3.246-11.687-1.3Z" transform="translate(-83.608 109.361)"/>
    <path id="Path_273" data-name="Path 273" class="cls-1" d="M250.9,116.17c2.922,5.519,8.441,3.571,8.765,0,0-2.6-.649-3.9-2.6-4.87h0c6.168.974,4.545,10.389-1.623,9.739a5.853,5.853,0,0,1-4.545-4.87Z" transform="translate(-83.158 110.546)"/>
    <path id="Path_274" data-name="Path 274" class="cls-1" d="M253.1,111.6v5.844h0c-.325,0-.649-1.3-.649-1.623-.649-2.273.325-4.22.649-4.22Z" transform="translate(-80.164 111.22)"/>
    <path id="Path_275" data-name="Path 275" class="cls-1" d="M252.46,111.6c.649,1.948.325,3.246.325,6.168h-.325c-1.623-.649-1.3-5.844,0-6.168Z" transform="translate(-82.122 111.22)"/>
    <path id="Path_276" data-name="Path 276" class="cls-1" d="M254,112a24.57,24.57,0,0,1-.325,4.87h0A3.527,3.527,0,0,1,254,112Z" transform="translate(-78.788 112.118)"/>
    <path id="Path_277" data-name="Path 277" class="cls-1" d="M252.716,112.1v4.22h0c-.325-1.3-1.3-1.623-.325-3.9-.325,0,0-.325.325-.325Z" transform="translate(-80.754 112.343)"/>
    <g id="Group_27" data-name="Group 27" transform="translate(197.609 138.169)">
      <path id="Path_278" data-name="Path 278" class="cls-1" d="M287.374,90.3a4.478,4.478,0,0,0-.974,1.3h.974c.325-.649.325-.974,0-1.3Z" transform="translate(-201.019 -74.798)"/>
      <path id="Path_279" data-name="Path 279" class="cls-1" d="M291.1,90.3Z" transform="translate(-190.46 -74.798)"/>
      <path id="Path_280" data-name="Path 280" class="cls-1" d="M299.449,89.5l-.649.649h.649V89.5Z" transform="translate(-173.163 -76.595)"/>
      <path id="Path_281" data-name="Path 281" class="cls-1" d="M295.668,89.9c-.325,0-.325.325,0,0-.325.325,0,.325,0,0Z" transform="translate(-180.744 -75.697)"/>
      <path id="Path_282" data-name="Path 282" class="cls-1" d="M282.749,90.7c-.325,0-.325.325-.649.649h.649c.325-.325.325-.325,0-.649Z" transform="translate(-210.678 -73.9)"/>
      <path id="Path_283" data-name="Path 283" class="cls-1" d="M278.574,90.7A4.478,4.478,0,0,0,277.6,92h.974c.325-.325.325-.649,0-1.3Z" transform="translate(-220.787 -73.9)"/>
      <path id="Path_284" data-name="Path 284" class="cls-1" d="M274,97.974v4.545c8.441-.325,17.531-.649,26.621-1.3a3.985,3.985,0,0,1-.649-4.22c-4.545.325-8.765.325-13.31.649v4.22h0a3.541,3.541,0,0,1-.974-4.22C282.116,97.974,277.9,97.974,274,97.974Z" transform="translate(-228.875 -59.747)"/>
      <path id="Path_285" data-name="Path 285" class="cls-1" d="M302.949,89.1c-.325.325-.325.649-.649.649h.974a1,1,0,0,1-.325-.649Z" transform="translate(-165.3 -77.494)"/>
      <path id="Path_286" data-name="Path 286" class="cls-1" d="M295.386,96.8c-4.545.325-8.765.649-12.986.649v4.22c4.545-.325,9.415-.325,13.96-.649C295.386,100.371,295.061,98.423,295.386,96.8Z" transform="translate(-210.004 -60.196)"/>
      <path id="Path_287" data-name="Path 287" class="cls-1" d="M270.5,97.4v4.87c3.571,0,7.142-.325,10.713-.325-.974-1.3-.974-3.571.325-4.545Z" transform="translate(-236.737 -58.848)"/>
      <path id="Path_288" data-name="Path 288" class="cls-1" d="M305.874,89.574V88.6h-.325c-.325.325-.649.649-.649.974A.609.609,0,0,0,305.874,89.574Z" transform="translate(-159.459 -78.617)"/>
      <path id="Path_289" data-name="Path 289" class="cls-1" d="M274.1,91.2Z" transform="translate(-228.974 -72.776)"/>
      <path id="Path_290" data-name="Path 290" class="cls-1" d="M430.863,96.482c-3.9-8.441-8.765-10.064-12.661-10.713-8.441-1.623-127.585,5.194-139.273,10.713C264.645,103.3,260.1,121.8,260.1,122.129v2.6c0,2.6,3.246,4.545,7.467,4.545h15.258c-1.623-.974-1.623-3.571,0-4.87h0c.325,2.922,0,1.948,0,4.87,3.246,0,7.142-.325,11.038-.325a3.531,3.531,0,0,1,0-4.87c-8.116,0-15.908,0-23.7-.325v-.325c68.5-1.623,154.856-8.441,157.128-11.038.974-1.3.974-2.6.325-2.922l-.325-.325v-.325c1.623.649,1.948,4.545-2.273,5.194a60.591,60.591,0,0,0-8.116,1.3v3.571h0a2.69,2.69,0,0,1-.974-3.571,87.494,87.494,0,0,0-9.09,1.3c.325,1.948,0,1.3.325,3.9h0a2.69,2.69,0,0,1-.974-3.571l-7.792.974c.325,1.948,0,1.3.325,3.9h0a3.1,3.1,0,0,1-.974-3.9,100.846,100.846,0,0,0-10.389,1.3v4.87h0a3.872,3.872,0,0,1-.649-4.87L376,120.181v4.87h0c-1.623-.974-1.623-3.571-.325-4.87-4.545.325-9.09.974-13.635,1.3v4.545h0a4.089,4.089,0,0,1-.974-4.22c-4.545.325-8.765.649-12.986.974v4.545c11.038-.649,22.076-1.3,31.815-1.948,17.855-1.3,43.827-5.194,51.294-7.467C438.979,113.688,434.759,104.6,430.863,96.482ZM272.436,124.4h0a24.567,24.567,0,0,1,.325,4.87h0A3.046,3.046,0,0,1,272.436,124.4ZM420.8,91.288c2.273.974,3.571,5.844,3.571,8.116h0c-.649-2.6-2.273-7.142-3.571-8.116Zm1.623,9.09h0c-19.479,3.9-60.059,7.467-79.863,7.142h0C369.18,105.572,397.1,102.975,422.422,100.378Zm-7.791-4.545h0a18.508,18.508,0,0,1,.325,4.22h0A2.583,2.583,0,0,1,414.631,95.833Zm6.168-1.623h0a1.193,1.193,0,0,0-.325-.974c-.325-.974-3.571-1.3-4.545-1.3h0C417.877,90.963,422.422,92.261,420.8,94.209Zm-1.3-5.194h0c-1.3-1.948-17.206-1.948-18.5-1.623h0C403.593,86.418,417.228,86.093,419.5,89.015Zm-12.986,3.246h0c-1.948-.974-1.948-2.6-.325-3.571h0A12.172,12.172,0,0,1,406.515,92.261Zm-8.765-5.194h0a26.236,26.236,0,0,1,.325,5.194h0A3.2,3.2,0,0,1,397.749,87.067Zm-11.363,1.3h0a26.243,26.243,0,0,1,.325,5.194h0A3.2,3.2,0,0,1,386.387,88.366Zm-25.647,0h0a37.275,37.275,0,0,1,.325,6.168h0A4.512,4.512,0,0,1,360.74,88.366Zm-14.284,1.623h0a35.287,35.287,0,0,1,.325,5.844h0A4.113,4.113,0,0,1,346.455,89.989Zm-14.284.974h0a35.278,35.278,0,0,1,.325,5.844h0A4.113,4.113,0,0,1,332.171,90.963Zm-14.284,1.623h0a24.567,24.567,0,0,1,.325,4.87h0C316.588,96.157,316.588,93.56,317.887,92.586Zm-12.661,1.3h0a18.506,18.506,0,0,1,.325,4.22h0A2.343,2.343,0,0,1,305.225,93.885Zm-11.363,1.3h0a18.509,18.509,0,0,1,.325,4.22h0A2.442,2.442,0,0,1,293.863,95.183ZM282.5,97.456h0a11.047,11.047,0,0,1,.325,3.246h0C281.2,100.053,280.877,98.43,282.5,97.456Zm92.524-3.246a4.438,4.438,0,0,1,0-5.844h0a17.618,17.618,0,0,1,0,5.844c13.635-.649,26.945-1.623,39.931-2.272-1.623-.649-1.623-2.273,0-3.246h0a10.643,10.643,0,0,1,0,3.246h0c-23.375,1.948-22.076,2.272-139.922,9.739h0C307.5,98.43,341.586,96.157,375.024,94.209Zm-102.263,8.765h0c0,.325-.325.325-.325.649,0,1.623,90.576-3.9,133.754-7.791h0c4.545-.325,9.09-.974,13.635-1.3v.325q-6.331.974-13.635,1.948v4.545h0a3.908,3.908,0,0,1-.974-4.545c-2.6.325-4.87.649-7.467.974v4.545h0a3.078,3.078,0,0,1-.649-4.22l-10.713.974v4.545h0a3.491,3.491,0,0,1-.649-4.545l-10.713.974c.325,2.922,0,1.948,0,4.87h0a3.268,3.268,0,0,1-.325-4.87c-4.545.325-9.415.649-13.96.974.325,2.6,0,1.948,0,4.87h0a2.92,2.92,0,0,1-.325-4.545c-4.545.325-9.415.649-13.96.974v3.9h0a2.69,2.69,0,0,1-.974-3.571c-4.545.325-8.766.649-13.31.649v4.22h0a3.078,3.078,0,0,1-.649-4.22c-4.545.325-9.09.325-13.635.649v3.571h0a2.69,2.69,0,0,1-.974-3.571c-4.22.325-8.116.325-11.687.325.325,2.272,0,1.623,0,4.22h0a2.583,2.583,0,0,1-.325-4.22c-18.829.649-31.815.325-32.789-.325C271.787,103.3,272.112,103.3,272.761,102.975Zm21.427,6.493h0a2.887,2.887,0,0,1-.325-4.87h0A24.569,24.569,0,0,1,294.188,109.468Zm-11.363,0h0a3.046,3.046,0,0,1-.325-4.87h0A24.578,24.578,0,0,1,282.825,109.468Zm-10.389,1.3c30.841-1.623,18.829-.974,55.839-2.6h0a14.708,14.708,0,0,0-2.6.325c-46.749,4.87-58.436.649-57.462,4.545h0C267.891,113.363,266.917,111.091,272.436,110.766Zm-7.467,10.389a1,1,0,0,1,.649-.325h0s-.325,0-.325.649v.649c.649.974,1.623.974,2.6,1.3h0C264.97,123.752,264.32,122.129,264.97,121.155Zm97.718-6.493h0c13.96-1.3,15.258-1.3,35.061-3.246a3,3,0,0,1-.649-3.9c-3.246.325-6.818.649-10.389,1.3v3.246h0a3.764,3.764,0,0,1-1.3-3.246c-3.246.325-6.493.649-10.064.974v3.571h0c-.974-.649-1.3-2.273-1.3-3.246-4.22.325-8.441.649-12.986.974v3.246h0a3.764,3.764,0,0,1-1.3-3.246c-4.22.325-8.441.649-12.986.974v3.571h0a2.69,2.69,0,0,1-.974-3.571c-4.22.325-8.765.649-12.986.649v3.9c10.064-.649,18.18-1.3,25.972-1.623h0c-26.621,4.22-77.59,5.519-90.9,5.194h0c29.218-1.623,49.346-2.6,64.6-3.571a3,3,0,0,1-.649-3.9c-4.545.325-8.765.325-13.31.649v3.571h0a2.69,2.69,0,0,1-.974-3.571c-3.9,0-7.791.325-11.687.325v4.22h0a2.583,2.583,0,0,1-.325-4.22H294.512v3.571h0a2.763,2.763,0,0,1-.974-3.571c-8.441,0-16.882,0-25-.325v-.325c42.2-.974,80.837-3.246,118.171-6.493a.318.318,0,0,1,.325-.325h0v.325c12.661-.974,25-2.273,37.334-3.9a1.529,1.529,0,0,0,.325-1.948h0a1.963,1.963,0,0,1,0,2.6c-2.922.649-5.844.974-9.09,1.623v3.571h0a2.318,2.318,0,0,1-.974-3.246c-2.272.325-4.87.649-7.467.974v3.571h0c-1.3-.974-1.623-2.6-.649-3.571l-7.791.974v3.9c6.818-.649,15.583-1.623,27.919-2.6h0C416.579,110.766,382.491,115.311,362.688,114.662Zm-90.251,0h0a24.566,24.566,0,0,1,.325,4.87h0C271.138,118.233,270.813,115.636,272.436,114.662Zm10.064,0h0a24.578,24.578,0,0,1,.325,4.87h0C280.877,118.233,280.877,115.636,282.5,114.662Zm141.22-6.168h0a2.442,2.442,0,0,1-.325-4.22h0C423.721,106.87,423.4,106.221,423.721,108.494Zm4.22-.325h0c-.974-2.6-.649-1.623-1.623-4.22h0A4.745,4.745,0,0,1,427.941,108.169ZM423.4,118.233a2.167,2.167,0,0,1,0-3.9h0c.325,2.272,0,1.623,0,3.9Zm2.6-1.623h0c.974-.974,2.273-2.6,1.948-3.9h0C428.915,114.013,427.617,116.61,425.993,116.61Z" transform="translate(-260.1 -85.525)"/>
    </g>
    <path id="Path_291" data-name="Path 291" class="cls-1" d="M250.78,88.832c6.818-1.3,11.363,4.22,8.116,10.713-4.545,9.415-19.154.325-10.713-9.09h0a8.136,8.136,0,0,0-1.3,2.273,6.573,6.573,0,0,0,5.519,9.09h0c8.116,0,9.739-13.635-1.623-12.986Z" transform="translate(-95.05 59.644)"/>
    <path id="Path_292" data-name="Path 292" class="cls-1" d="M254.026,88.443c-1.948.649-4.22,1.623-5.519,3.246-1.623,1.948-3.9,9.09,2.272,12.012v.325c-9.739-.649-7.467-17.855,3.247-15.583Z" transform="translate(-97.323 58.735)"/>
    <path id="Path_293" data-name="Path 293" class="cls-1" d="M249.325,98.342l-.325-1.3c3.571-.974,3.9-5.844,3.9-5.844h1.3C254.519,91.525,253.87,97.368,249.325,98.342Z" transform="translate(-87.426 65.392)"/>
    <path id="Path_294" data-name="Path 294" class="cls-1" d="M250,80.9c13.96,6.168,16.557,12.661,17.531,20.128h-.325s-.649-1.948-.974-1.948C262.012,89.016,255.194,86.094,250,80.9Z" transform="translate(-85.18 42.254)"/>
    <path id="Path_295" data-name="Path 295" class="cls-1" d="M244.075,87.339c.649,4.22,4.87,3.9,4.87.325,0-1.948-.649-2.6-2.6-2.272-1.3.325-1.623.974-1.3.649h0c0-.649.974-1.3,2.273-1.623,2.6-.325,3.571,2.6,2.922,4.87-1.3,3.571-7.142,2.6-6.168-1.948Z" transform="translate(-98.734 50.099)"/>
    <path id="Path_296" data-name="Path 296" class="cls-1" d="M246.794,83.9c-2.6,1.623-2.6,3.246-2.272,4.87a2.844,2.844,0,0,0,.649,1.948,17.4,17.4,0,0,1,3.571,1.623h0c-3.246-.325-3.9-.325-4.545-.974-1.623-1.3-2.6-6.818,2.6-7.467Z" transform="translate(-101.128 48.993)"/>
    <path id="Path_297" data-name="Path 297" class="cls-1" d="M245.8,85.048c3.246-1.3,9.739-1.3,12.661.325h0c-7.791,0-4.87,0-12.661-.325Z" transform="translate(-94.615 49.468)"/>
    <path id="Path_298" data-name="Path 298" class="cls-1" d="M245.768,82.4a25.065,25.065,0,0,1-.649,4.87h0a2.917,2.917,0,0,1,.649-4.87Z" transform="translate(-98.479 45.624)"/>
    <path id="Path_299" data-name="Path 299" class="cls-1" d="M244.776,82.7a11.535,11.535,0,0,1-.649,3.246h0c-1.3-.974-1.3-2.6.649-3.246Z" transform="translate(-100.408 46.298)"/>
    <path id="Path_300" data-name="Path 300" class="cls-1" d="M246.975,81.9a57.953,57.953,0,0,1-.649,7.467h0a6.392,6.392,0,0,1,.649-7.467Z" transform="translate(-95.466 44.5)"/>
    <path id="Path_301" data-name="Path 301" class="cls-1" d="M247.968,82.3a39.786,39.786,0,0,1-.649,6.168h0c-1.623-1.3-1.3-4.545.649-6.168Z" transform="translate(-93.537 45.399)"/>
    <path id="Path_302" data-name="Path 302" class="cls-1" d="M248.868,82.3a35.778,35.778,0,0,1-.649,5.844h0a3.886,3.886,0,0,1,.649-5.844Z" transform="translate(-91.515 45.399)"/>
    <path id="Path_303" data-name="Path 303" class="cls-1" d="M249.5,82.8c-.325,2.922,0,1.948-.649,4.545h0A2.942,2.942,0,0,1,249.5,82.8Z" transform="translate(-89.553 46.522)"/>
    <path id="Path_304" data-name="Path 304" class="cls-1" d="M241.2,89.172c3.9-1.3,2.6-.974,6.493-2.272h0c-.974,2.272-4.22,3.246-6.493,2.272Z" transform="translate(-104.949 55.733)"/>
    <path id="Path_305" data-name="Path 305" class="cls-1" d="M245.611,81.587c4.22,2.922.974,9.09-3.571,7.467a4.068,4.068,0,0,1,2.272-7.791v.325a3.432,3.432,0,0,0-2.272,1.948c0,.325,0,.325-.325.649h0a1.8,1.8,0,0,0,.974,1.948l.325.325h0c2.6.649,3.9-1.948,2.6-4.87Z" transform="translate(-109.036 42.865)"/>
    <path id="Path_306" data-name="Path 306" class="cls-1" d="M248.3,81c4.545.325,10.064,6.493,9.09,10.713h-.325c-1.623-3.9-5.519-7.791-8.765-10.713Z" transform="translate(-88.999 42.479)"/>
    <path id="Path_307" data-name="Path 307" class="cls-1" d="M291.5,64.1c3.571,2.272,7.791,8.765,8.765,12.661h0A124.272,124.272,0,0,1,291.5,64.1Z" transform="translate(8.047 4.514)"/>
    <path id="Path_308" data-name="Path 308" class="cls-1" d="M272.032,66.508c-1.948,1.623,2.272,1.3,4.87.974,11.687-.974,10.389-2.272,14.284-.649,4.545,1.948,4.22,1.3,20.777,2.273h0c-1.623.325-13.96.649-17.531,0-6.493-1.3-3.246-2.6-11.038-1.3-2.273.325-9.415.649-11.687,0-.974-.325-.649-.974.325-1.3Z" transform="translate(-37.738 8.923)"/>
    <path id="Path_309" data-name="Path 309" class="cls-1" d="M271.154,66.6c0,1.623,1.3.974,10.713.649h0a32.165,32.165,0,0,1-5.844.649c-1.948.325-5.519.649-4.87-1.3Z" transform="translate(-37.834 10.13)"/>
    <path id="Path_310" data-name="Path 310" class="cls-1" d="M283,67.255c4.22-.649,11.038,2.922,11.687.974h0s0,.974-1.3,1.3c-2.273.974-4.87,0-10.389-2.273Z" transform="translate(-11.047 11.422)"/>
    <path id="Path_311" data-name="Path 311" class="cls-1" d="M275.5,66.4a31.5,31.5,0,0,1,5.519.325h0c-.974.649-3.9.649-5.519-.325Z" transform="translate(-27.896 9.681)"/>
    <path id="Path_312" data-name="Path 312" class="cls-1" d="M259.27,68.011c-.649,0-16.557,0-17.206.325-.325.325-.649.974-.325.974s15.258-.325,15.583-.325h0c-3.571.649-11.038,1.3-14.934,1.623-3.246,0-3.571-4.22.974-3.9,5.194.325,12.012.649,15.908,1.3Z" transform="translate(-107.76 10.342)"/>
    <path id="Path_313" data-name="Path 313" class="cls-1" d="M240.725,68.209a1,1,0,0,0,.325.649h.649a71.662,71.662,0,0,1,15.583-.974h0c-15.258,1.3-16.882,1.623-16.557.325Z" transform="translate(-106.097 12.741)"/>
    <path id="Path_314" data-name="Path 314" class="cls-1" d="M246.2,67.408c12.986-1.948,35.386,6.168,39.282,7.791h0c-33.114-7.791-29.218-7.467-39.282-7.791Z" transform="translate(-93.717 11.27)"/>
    <path id="Path_315" data-name="Path 315" class="cls-1" d="M246.268,67.3l.325.974h0c10.064-.649,6.493-.974,29.867,7.142h0c-1.3-.325-2.6-.325-3.9-.649-20.128-4.87-10.713-5.194-26.3-6.168-.325-.649-.325-.649,0-1.3Z" transform="translate(-94.11 11.702)"/>
    <path id="Path_316" data-name="Path 316" class="cls-1" d="M253.1,68.67a11.218,11.218,0,0,1,6.493-.325c.974.325,1.3.325,1.3,1.623h0c-.325-.974-.325-1.3-1.948-1.3-.649.325-3.246,0-5.844,0Z" transform="translate(-78.216 13.255)"/>
    <path id="Path_317" data-name="Path 317" class="cls-1" d="M246.6,67.8c6.168.325,3.9.325,10.064.649h0c-1.623.325-6.818.649-10.064-.649Z" transform="translate(-92.818 12.826)"/>
    <path id="Path_318" data-name="Path 318" class="cls-1" d="M264.911,67.8c-9.09,1.623-31.815,3.571-34.737,4.87h0c.325,0,.325-.325.325-.649h0V71.7h0c.325.325,1.3.325,1.623.325A96.783,96.783,0,0,1,250.3,70.4h0c-13.31.649-19.8,4.22-21.1,1.948V72.02l.325-.325c3.9-1.948,22.725-2.922,35.386-3.9Z" transform="translate(-131.906 12.826)"/>
    <path id="Path_319" data-name="Path 319" class="cls-1" d="M236.3,69.877c19.479-3.571,40.581-1.623,48.7.325h0c-21.426-1.948-37.983-.649-48.7-.325Z" transform="translate(-115.956 13.021)"/>
    <path id="Path_320" data-name="Path 320" class="cls-1" d="M235.943,68.4c.325,1.3.649.649,1.623,1.3h0c-1.3.649-2.273-.325-1.623-1.3Z" transform="translate(-117.223 14.173)"/>
    <path id="Path_321" data-name="Path 321" class="cls-1" d="M263.435,60c1.623,3.246.974,2.273,2.6,5.519h0c-1.623-1.3-2.922-3.9-2.6-5.519Z" transform="translate(-55.112 -4.697)"/>
    <path id="Path_322" data-name="Path 322" class="cls-1" d="M261.4,59.9a1.3,1.3,0,0,1,.649,1.3,1.687,1.687,0,0,1-.649,1.3h0V59.9Z" transform="translate(-59.571 -4.921)"/>
    <path id="Path_323" data-name="Path 323" class="cls-1" d="M262.118,60c.325,1.3,0,.974.325,2.273h0c-.649-.325-.649-.649-.649-.974-.325-.325,0-.974.325-1.3Z" transform="translate(-58.99 -4.697)"/>
    <path id="Path_324" data-name="Path 324" class="cls-1" d="M229.4,71.5c.974,2.272,3.246.325,17.206-1.623,27.595-3.9,56.488.649,59.085,1.3h0c-1.3-.325-34.412-3.571-64.929.325-8.441,1.3-10.713,2.272-11.363,0Z" transform="translate(-131.457 13.992)"/>
    <path id="Path_325" data-name="Path 325" class="cls-1" d="M261.2,70.752c1.3,1.3,3.9,0,10.389-.649,6.168-.974,26.3-4.545,57.462-1.623h0c-37.983.325-33.763,0-46.424.974C263.8,71.4,262.5,72.375,261.2,70.752Z" transform="translate(-60.02 11.821)"/>
    <path id="Path_326" data-name="Path 326" class="cls-1" d="M282.6,67.6c.325.325,1.3,1.3,1.623,1.3a17.156,17.156,0,0,1,3.9.325h0c-3.571.325-5.194.649-5.519-1.623Z" transform="translate(-11.946 12.376)"/>
    <path id="Path_327" data-name="Path 327" class="cls-1" d="M255,51.2c3.247,0,3.247,2.273,3.247,2.273h0c-.325-.325-.649-.974-1.3-1.3-.649,0-.974,0-1.948-.974Z" transform="translate(-73.948 -24.465)"/>
    <path id="Path_328" data-name="Path 328" class="cls-1" d="M223.179,107.437c-1.623-24.348,14.284-29.867,29.543-.325,5.844,12.012,12.012,35.711,14.609,48.047h-.325c-10.064-30.192-15.583-50.32-26.945-61.682C229.023,82.44,223.5,95.1,223.179,107.437Z" transform="translate(-145.689 55.973)"/>
    <path id="Path_329" data-name="Path 329" class="cls-1" d="M237,109.6c.649,1.3,6.818,16.881,7.142,27.595h0c-.325-1.3-6.818-25-7.142-27.595Z" transform="translate(-114.384 106.727)"/>
    <path id="Path_330" data-name="Path 330" class="cls-1" d="M236.515,102.749l-1.623,2.273-2.6,3.9-3.9,5.844h-1.3c0-.974,1.3-2.273,2.272-3.571l1.948-2.6a55.075,55.075,0,0,1,3.246-4.545l1.3-1.948.649.649Z" transform="translate(-136.624 89.879)"/>
    <path id="Path_331" data-name="Path 331" class="cls-1" d="M228.4,108.219c1.3-.325,2.273-.974,3.246-3.246a6.875,6.875,0,0,0,.974-2.272h0c1.3,1.3-.649,7.142-4.22,5.519Z" transform="translate(-133.703 91.227)"/>
    <path id="Path_332" data-name="Path 332" class="cls-1" d="M232.646,103.8a22.545,22.545,0,0,1-1.623,4.22v.649h0v.325s0,.649.325.649h0c.974-.325,1.3-.649,2.273-.974h0c-2.273,3.246-4.22,1.948-4.22.325.325-1.948,2.273-4.22,3.246-5.194Z" transform="translate(-131.457 93.698)"/>
    <path id="Path_333" data-name="Path 333" class="cls-1" d="M233.983,125.491c-6.493-4.87-3.571-6.493-.325-4.87a3.888,3.888,0,0,1,1.3,1.3h0l-.325-.325a3.663,3.663,0,0,0-2.6-.325h-.325l.325-.325s0,.325.649.974c.325.649.649.974.974,1.623.325.974.649,1.623.325,1.948Z" transform="translate(-129.871 130.118)"/>
    <path id="Path_334" data-name="Path 334" class="cls-1" d="M229.444,120.9c-.649,0,3.9,4.545,4.545,4.545s-.649-1.948-1.3-2.6c-.325-.974-2.6-1.948-3.246-1.948Z" transform="translate(-131.501 132.112)"/>
    <path id="Path_335" data-name="Path 335" class="cls-1" d="M230.866,112.941a2.192,2.192,0,0,1-1.3-3.9c.974-.649,2.6-.325,2.922.325v.325h0s0-.325-.649-.325c-2.6.325-2.273,2.273-.974,3.571Z" transform="translate(-132.922 104.685)"/>
    <path id="Path_336" data-name="Path 336" class="cls-1" d="M232.349,119.384c-2.273.649-4.22-2.273-1.948-3.571.974-.649,2.922-.649,2.922.325H233c-.649-.325-2.6.649-2.272,1.623,0,.325.974,1.3,1.623,1.623Z" transform="translate(-131.484 119.668)"/>
    <path id="Path_337" data-name="Path 337" class="cls-1" d="M227.1,115.6c1.623,2.6,3.571,8.765,3.9,10.064a15.822,15.822,0,0,0,.974,2.273l.325.325h0s-1.948.325-3.9-5.844a39.944,39.944,0,0,1-1.3-6.818Z" transform="translate(-136.624 120.206)"/>
    <path id="Path_338" data-name="Path 338" class="cls-1" d="M225.839,53.5c-1.623,6.493-7.142,27.595-9.739,33.438h0c1.948-10.064,5.519-24.673,9.739-33.438Z" transform="translate(-161.335 -19.299)"/>
    <path id="Path_339" data-name="Path 339" class="cls-1" d="M210.416,74.536c-1.623-.649-6.493-3.571-6.818-1.948h-1.3s0-.974.649-1.3c1.623-1.623,5.519.649,8.116,1.948Z" transform="translate(-192.336 19.4)"/>
    <path id="Path_340" data-name="Path 340" class="cls-1" d="M202.414,90.4c-.325,10.713.649,26.3,1.948,27.919,0,.325.325,0,0,0h.325c1.948-1.623,1.623-9.739,2.272-14.284h0c0,6.493.649,13.635-1.623,15.258-5.194,3.571-4.22-22.725-2.922-28.893Z" transform="translate(-194.397 63.595)"/>
    <path id="Path_341" data-name="Path 341" class="cls-1" d="M204.926,86.9c-.325,1.3-.974,4.87-2.6,6.493h0c-.325-3.571,1.3-5.844,2.6-6.493Z" transform="translate(-192.365 55.733)"/>
    <path id="Path_342" data-name="Path 342" class="cls-1" d="M202.935,100.4c0,1.3.649,3.246,1.623,3.9h0c-1.3,0-2.6-2.273-1.623-3.9Z" transform="translate(-191.672 86.06)"/>
    <path id="Path_343" data-name="Path 343" class="cls-1" d="M204.872,88.2c-.325.325-2.273,1.948-1.623,2.273.649,0,1.623-1.3,1.948-1.623h0c-.325.974-1.3,2.6-2.6,1.948v-.649h0c-.325,0,0,.325,0,.325h0c-.649-.649,1.3-2.273,2.273-2.273Z" transform="translate(-191.986 58.653)"/>
    <path id="Path_344" data-name="Path 344" class="cls-1" d="M204.967,89.1c-2.272,1.3-1.3,2.922,0,2.6h0a1.565,1.565,0,0,1-1.948-.325c-.649-.974.649-2.273,1.948-2.273Z" transform="translate(-191.107 60.675)"/>
    <path id="Path_345" data-name="Path 345" class="cls-1" d="M204.6,91.161q-1.461.974,0,1.948h0c-.649.325-1.3-.325-1.3-1.3a.958.958,0,0,1,1.3-.649Z" transform="translate(-190.089 65.106)"/>
    <path id="Path_346" data-name="Path 346" class="cls-1" d="M204.622,93.821c-.649.325-.974.974,0,1.948h0a1.193,1.193,0,0,1-.974-.325c-.649-.974.325-2.273.974-1.623Z" transform="translate(-189.788 70.888)"/>
    <path id="Path_347" data-name="Path 347" class="cls-1" d="M204.655,96.193a1.141,1.141,0,0,0,0,1.948h0c-.974.325-1.623-.649-.974-1.623.325-.325.649-.649.974-.325Z" transform="translate(-189.821 76.307)"/>
    <path id="Path_348" data-name="Path 348" class="cls-1" d="M204.823,98.26a1.5,1.5,0,0,0-.325,2.6h0a1.485,1.485,0,0,1-1.3-1.623,1.241,1.241,0,0,1,1.623-.974Z" transform="translate(-190.314 81.058)"/>
    <path id="Path_349" data-name="Path 349" class="cls-1" d="M205.073,100.956c-1.623-2.273-2.6,0-.325,1.948h0c-.649-.325-1.948-.974-1.948-2.273,0-1.948,2.273-1.3,2.273.325Z" transform="translate(-191.212 83.881)"/>
    <path id="Path_350" data-name="Path 350" class="cls-1" d="M212,80.839h-1.3c0-.325.974-7.467,1.948-9.739l1.3.649C212.972,73.373,212,80.839,212,80.839Z" transform="translate(-173.465 20.239)"/>
    <path id="Path_351" data-name="Path 351" class="cls-1" d="M217.168,78.171c-1.3-1.3-4.87-1.948-6.168-2.272l.325-1.3c.649,0,5.194.649,6.818,2.6Z" transform="translate(-172.791 28.101)"/>
    <path id="Path_352" data-name="Path 352" class="cls-1" d="M228.1,73.143c9.415-.649,27.27,3.9,34.088,8.116v.325c-6.168-1.623-32.789-7.791-34.088-8.441Z" transform="translate(-134.377 24.689)"/>
    <path id="Path_353" data-name="Path 353" class="cls-2" d="M228.4,100.4" transform="translate(-133.703 86.06)"/>
    <path id="Path_354" data-name="Path 354" class="cls-1" d="M323.015,117.1c.325,4.545-3.571,12.986-9.415,14.284h0c4.545-3.246,7.791-9.739,9.415-14.284Z" transform="translate(57.694 123.575)"/>
    <path id="Path_355" data-name="Path 355" class="cls-1" d="M325.364,116.3c.325,4.545-3.571,13.96-10.064,15.908h0a16.225,16.225,0,0,0,4.22-4.22,43.65,43.65,0,0,0,5.844-11.687Z" transform="translate(61.513 121.778)"/>
    <path id="Path_356" data-name="Path 356" class="cls-1" d="M327.413,115.9c0,5.844-4.87,15.258-10.713,16.232h0c5.194-3.246,8.765-10.713,10.713-16.232Z" transform="translate(64.658 120.88)"/>
    <path id="Path_357" data-name="Path 357" class="cls-1" d="M320.6,117.648s3.246-1.623,3.571-1.948h0c-.325.649-.974.974-1.3,1.623-1.948.649-2.272.325-2.272.325Z" transform="translate(73.419 120.43)"/>
    <path id="Path_358" data-name="Path 358" class="cls-1" d="M320.1,118.848a12.6,12.6,0,0,1,3.571-1.948h0c-.325,1.3-1.623,2.272-3.571,1.948.325.325,0,.325,0,0Z" transform="translate(72.296 123.126)"/>
    <path id="Path_359" data-name="Path 359" class="cls-1" d="M319.7,119.5a25.742,25.742,0,0,1,2.922-1.3h0a4.482,4.482,0,0,1-.974,1.3c-.649,0-1.3.325-1.948,0Z" transform="translate(71.397 126.046)"/>
    <path id="Path_360" data-name="Path 360" class="cls-1" d="M313.6,118.625a47.947,47.947,0,0,1,6.818-.325h0c-1.3.974-4.87,1.3-6.818.325Z" transform="translate(57.694 126.271)"/>
    <path id="Path_361" data-name="Path 361" class="cls-1" d="M313.2,119.5h5.844c.325,0-1.3.325-1.623.649-1.623.325-3.246.325-4.22-.649Z" transform="translate(56.795 128.967)"/>
    <path id="Path_362" data-name="Path 362" class="cls-1" d="M312.3,120.9h4.22c.974.325-2.6,1.3-4.22,0Z" transform="translate(54.774 132.112)"/>
    <path id="Path_363" data-name="Path 363" class="cls-1" d="M242.791,117.3c1.3,9.09,0,33.438-7.791,39.607h0c5.844-6.818,7.467-30.841,7.791-39.607Z" transform="translate(-118.877 124.025)"/>
    <path id="Path_364" data-name="Path 364" class="cls-1" d="M243.918,120.8c.974,6.493-1.3,22.076-6.818,27.27h0c3.571-6.493,5.844-20.453,6.818-27.27Z" transform="translate(-114.159 131.887)"/>
    <path id="Path_365" data-name="Path 365" class="cls-1" d="M243.645,122.8c1.3,4.545-.325,13.96-4.545,17.206h0c2.6-4.87,3.9-12.986,4.545-17.206Z" transform="translate(-109.666 136.38)"/>
    <path id="Path_366" data-name="Path 366" class="cls-1" d="M233.4,125.525c.974,0,6.168,0,6.818-.325h0c-1.3,1.948-5.519,1.948-6.818.325Z" transform="translate(-122.471 141.772)"/>
    <path id="Path_367" data-name="Path 367" class="cls-1" d="M233.9,123.374a57.348,57.348,0,0,0,6.818-.974h0c-.974,2.273-4.87,2.6-6.818.974Z" transform="translate(-121.348 135.481)"/>
    <path id="Path_368" data-name="Path 368" class="cls-1" d="M234.3,119.549c.974.325,6.168-.325,7.142-.649h0c-1.3,1.623-4.87,2.273-7.142.649Z" transform="translate(-120.449 127.619)"/>
    <path id="Path_369" data-name="Path 369" class="cls-1" d="M234.3,115.874a18.9,18.9,0,0,0,6.168-.974h0c-.974,2.273-5.194,2.6-6.168.974Z" transform="translate(-120.449 118.633)"/>
    <path id="Path_370" data-name="Path 370" class="cls-1" d="M232.5,128.425c.974,0,6.818.325,8.116-.325h0c-1.623,2.273-6.168,2.6-8.116.325Z" transform="translate(-124.493 148.286)"/>
    <path id="Path_371" data-name="Path 371" class="cls-1" d="M241.2,126.374s2.922-.649,4.22-.974h0a3.367,3.367,0,0,1-2.6,1.948c-.974,0-1.623-.649-1.623-.974Z" transform="translate(-104.949 142.221)"/>
    <path id="Path_372" data-name="Path 372" class="cls-1" d="M240.6,128.249a13.806,13.806,0,0,1,3.571-.649h0c-.649,1.948-2.6,2.272-3.571.649Z" transform="translate(-106.297 147.163)"/>
    <path id="Path_373" data-name="Path 373" class="cls-1" d="M241.4,123.925a18.51,18.51,0,0,1,4.22-.325h0a2.429,2.429,0,0,1-4.22.325Z" transform="translate(-104.5 138.177)"/>
    <path id="Path_374" data-name="Path 374" class="cls-1" d="M209.7,99.4c1.3,5.194.325,17.531-3.9,21.427h0c2.6-4.87,3.571-16.232,3.9-21.427Z" transform="translate(-184.473 83.813)"/>
    <path id="Path_375" data-name="Path 375" class="cls-1" d="M210.3,100.8c1.3,3.9.325,12.661-2.6,15.583h0c1.3-2.922,2.272-12.661,2.6-15.583Z" transform="translate(-180.205 86.958)"/>
    <path id="Path_376" data-name="Path 376" class="cls-1" d="M211.023,101.9c1.3,2.922.325,7.791-1.623,9.739h0c.325-2.273,1.623-8.765,1.623-9.739Z" transform="translate(-176.386 89.429)"/>
    <path id="Path_377" data-name="Path 377" class="cls-1" d="M204.7,101.6c.649,0,3.571.325,4.22.325h0a1.134,1.134,0,0,1-.649.325c-.649,0,0,0-1.623.325-.325-.325-1.3-.325-1.948-.974Z" transform="translate(-186.944 88.755)"/>
    <path id="Path_378" data-name="Path 378" class="cls-1" d="M204.7,99.4h4.22a2.267,2.267,0,0,1-1.3.649A3.311,3.311,0,0,1,204.7,99.4Z" transform="translate(-186.944 83.813)"/>
    <path id="Path_379" data-name="Path 379" class="cls-1" d="M204.5,103.5c2.922.325,1.948,0,4.87.325h0c-.974.974-3.571.974-4.87-.325Z" transform="translate(-187.393 93.024)"/>
    <path id="Path_380" data-name="Path 380" class="cls-1" d="M203.8,105.1c.974.325,2.922,1.3,3.9.974h0c-.974.974-3.246.325-3.9-.974Z" transform="translate(-188.966 96.618)"/>
    <path id="Path_381" data-name="Path 381" class="cls-1" d="M209.567,97.4c1.623,6.818-.325,26.945-7.467,25.972h.325c5.194,0,6.818-19.479,7.142-25.972Z" transform="translate(-192.785 79.32)"/>
    <path id="Path_382" data-name="Path 382" class="cls-1" d="M233.829,104.276c.649.649.325,1.948-.649,3.246s-2.6,1.948-3.246,1.3-.325-1.948.649-3.246S233.18,103.627,233.829,104.276Z" transform="translate(-131.017 94.195)"/>
    <path id="Path_383" data-name="Path 383" class="cls-1" d="M233.946,109.622c0,1.623-.649,2.922-1.623,2.922s-1.623-1.3-1.623-2.922.649-2.922,1.623-2.922S233.946,108,233.946,109.622Z" transform="translate(-128.536 100.212)"/>
    <path id="Path_384" data-name="Path 384" class="cls-1" d="M235.1,113.222c0,1.623-.974,2.922-1.948,2.922s-1.948-1.3-1.948-2.922.974-2.922,1.948-2.922S235.1,111.6,235.1,113.222Z" transform="translate(-127.413 108.299)"/>
    <path id="Path_385" data-name="Path 385" class="cls-1" d="M232.811,120.493c-1.948,0-1.948-6.493,0-6.493C234.759,114.325,234.759,120.493,232.811,120.493Z" transform="translate(-127.076 116.611)"/>
    <path id="Path_386" data-name="Path 386" class="cls-1" d="M232.52,104.973a2.652,2.652,0,0,1-2.6,2.922,1.133,1.133,0,0,1-.649.325c-.649,0-.649-.649-.974-.974a55.062,55.062,0,0,1,3.246-4.545c.325.325.974.649,1.3.974C232.845,104,232.52,104.323,232.52,104.973Z" transform="translate(-133.928 91.226)"/>
    <path id="Path_387" data-name="Path 387" class="cls-1" d="M233.573,118.025c0,1.948-.325,3.571-.325,4.87l-.325.325-.325.325h0c-.649-1.3-1.3-1.623-1.3-2.922,0-1.623.649-2.922,1.623-2.922h.649C233.248,117.7,233.573,118.025,233.573,118.025Z" transform="translate(-127.189 124.923)"/>
    <path id="Path_388" data-name="Path 388" class="cls-1" d="M234.541,121.362h0a4.117,4.117,0,0,1-.325,1.948,1.686,1.686,0,0,1-1.3.649c-.325,0-.649-.325-.974-.325-.974-.649-1.948-1.623-1.3-2.6.325-.974,1.623-.974,2.922-.325a.318.318,0,0,1,.325.325C233.892,120.713,234.541,121.038,234.541,121.362Z" transform="translate(-129.131 130.675)"/>
    <path id="Path_389" data-name="Path 389" class="cls-1" d="M231,116.674c0,.649-.325.974-.649.974s-.649-.325-.649-.974.325-.974.649-.974S231,116.349,231,116.674Z" transform="translate(-130.783 120.43)"/>
    <path id="Path_390" data-name="Path 390" class="cls-1" d="M231.5,110.3a1.3,1.3,0,1,1-1.3-1.3A1.4,1.4,0,0,1,231.5,110.3Z" transform="translate(-132.58 105.379)"/>
    <path id="Path_391" data-name="Path 391" class="cls-1" d="M203.474,98.292c-1.3,0-1.3-2.273,0-2.273C204.773,95.695,204.773,98.292,203.474,98.292Z" transform="translate(-191.886 76.156)"/>
    <path id="Path_392" data-name="Path 392" class="cls-1" d="M204.242,91.8a1.3,1.3,0,0,1,0-2.6A1.3,1.3,0,0,1,204.242,91.8Z" transform="translate(-190.707 60.899)"/>
    <path id="Path_393" data-name="Path 393" class="cls-1" d="M204.374,93.373c-1.3,0-1.3-2.272,0-2.272S205.672,93.373,204.374,93.373Z" transform="translate(-189.864 65.168)"/>
    <path id="Path_394" data-name="Path 394" class="cls-1" d="M205.448,94.574a.974.974,0,0,1-1.948,0A.974.974,0,0,1,205.448,94.574Z" transform="translate(-189.64 70.784)"/>
    <path id="Path_395" data-name="Path 395" class="cls-1" d="M204.451,90.071c-1.623,1.3-2.6,0-.974-1.3C204.776,87.474,205.75,88.772,204.451,90.071Z" transform="translate(-191.565 58.73)"/>
    <path id="Path_396" data-name="Path 396" class="cls-1" d="M204.474,98.048a.974.974,0,1,1,0-1.948A.974.974,0,0,1,204.474,98.048Z" transform="translate(-189.64 76.4)"/>
    <path id="Path_397" data-name="Path 397" class="cls-1" d="M204.274,100.8c-1.3,0-1.3-2.6,0-2.6A1.3,1.3,0,0,1,204.274,100.8Z" transform="translate(-190.089 81.118)"/>
    <path id="Path_398" data-name="Path 398" class="cls-1" d="M204.831,101.952c-.974.649-2.6-1.623-1.623-2.273C204.506,99.031,205.805,101.3,204.831,101.952Z" transform="translate(-190.971 84.183)"/>
  </g>
</svg>
