<svg xmlns="http://www.w3.org/2000/svg" viewBox="0 0 654 1">
  <defs>
    <style>
      .cls-1 {
        fill: none;
        stroke: #e1e1e1;
      }
    </style>
  </defs>
  <g id="line" transform="translate(-101 -471)">
    <line id="Line_18" data-name="Line 18" class="cls-1" x2="3" transform="translate(101 471.5)"/>
    <line id="Line_18-2" data-name="Line 18" class="cls-1" x2="3" transform="translate(108 471.5)"/>
    <line id="Line_18-3" data-name="Line 18" class="cls-1" x2="3" transform="translate(115 471.5)"/>
    <line id="Line_18-4" data-name="Line 18" class="cls-1" x2="3" transform="translate(122 471.5)"/>
    <line id="Line_18-5" data-name="Line 18" class="cls-1" x2="3" transform="translate(129 471.5)"/>
    <line id="Line_18-6" data-name="Line 18" class="cls-1" x2="3" transform="translate(136 471.5)"/>
    <line id="Line_18-7" data-name="Line 18" class="cls-1" x2="3" transform="translate(143 471.5)"/>
    <line id="Line_18-8" data-name="Line 18" class="cls-1" x2="3" transform="translate(150 471.5)"/>
    <line id="Line_18-9" data-name="Line 18" class="cls-1" x2="3" transform="translate(157 471.5)"/>
    <line id="Line_18-10" data-name="Line 18" class="cls-1" x2="3" transform="translate(164 471.5)"/>
    <line id="Line_18-11" data-name="Line 18" class="cls-1" x2="3" transform="translate(171 471.5)"/>
    <line id="Line_18-12" data-name="Line 18" class="cls-1" x2="3" transform="translate(178 471.5)"/>
    <line id="Line_18-13" data-name="Line 18" class="cls-1" x2="3" transform="translate(185 471.5)"/>
    <line id="Line_18-14" data-name="Line 18" class="cls-1" x2="3" transform="translate(192 471.5)"/>
    <line id="Line_18-15" data-name="Line 18" class="cls-1" x2="3" transform="translate(199 471.5)"/>
    <line id="Line_18-16" data-name="Line 18" class="cls-1" x2="3" transform="translate(206 471.5)"/>
    <line id="Line_18-17" data-name="Line 18" class="cls-1" x2="3" transform="translate(213 471.5)"/>
    <line id="Line_18-18" data-name="Line 18" class="cls-1" x2="3" transform="translate(220 471.5)"/>
    <line id="Line_18-19" data-name="Line 18" class="cls-1" x2="3" transform="translate(227 471.5)"/>
    <line id="Line_18-20" data-name="Line 18" class="cls-1" x2="3" transform="translate(234 471.5)"/>
    <line id="Line_18-21" data-name="Line 18" class="cls-1" x2="3" transform="translate(241 471.5)"/>
    <line id="Line_18-22" data-name="Line 18" class="cls-1" x2="3" transform="translate(248 471.5)"/>
    <line id="Line_18-23" data-name="Line 18" class="cls-1" x2="3" transform="translate(255 471.5)"/>
    <line id="Line_18-24" data-name="Line 18" class="cls-1" x2="3" transform="translate(262 471.5)"/>
    <line id="Line_18-25" data-name="Line 18" class="cls-1" x2="3" transform="translate(269 471.5)"/>
    <line id="Line_18-26" data-name="Line 18" class="cls-1" x2="3" transform="translate(276 471.5)"/>
    <line id="Line_18-27" data-name="Line 18" class="cls-1" x2="3" transform="translate(283 471.5)"/>
    <line id="Line_18-28" data-name="Line 18" class="cls-1" x2="3" transform="translate(290 471.5)"/>
    <line id="Line_18-29" data-name="Line 18" class="cls-1" x2="3" transform="translate(297 471.5)"/>
    <line id="Line_18-30" data-name="Line 18" class="cls-1" x2="3" transform="translate(304 471.5)"/>
    <line id="Line_18-31" data-name="Line 18" class="cls-1" x2="3" transform="translate(311 471.5)"/>
    <line id="Line_18-32" data-name="Line 18" class="cls-1" x2="3" transform="translate(318 471.5)"/>
    <line id="Line_18-33" data-name="Line 18" class="cls-1" x2="3" transform="translate(325 471.5)"/>
    <line id="Line_18-34" data-name="Line 18" class="cls-1" x2="3" transform="translate(332 471.5)"/>
    <line id="Line_18-35" data-name="Line 18" class="cls-1" x2="3" transform="translate(339 471.5)"/>
    <line id="Line_18-36" data-name="Line 18" class="cls-1" x2="3" transform="translate(346 471.5)"/>
    <line id="Line_18-37" data-name="Line 18" class="cls-1" x2="3" transform="translate(353 471.5)"/>
    <line id="Line_18-38" data-name="Line 18" class="cls-1" x2="3" transform="translate(360 471.5)"/>
    <line id="Line_18-39" data-name="Line 18" class="cls-1" x2="3" transform="translate(367 471.5)"/>
    <line id="Line_18-40" data-name="Line 18" class="cls-1" x2="3" transform="translate(374 471.5)"/>
    <line id="Line_18-41" data-name="Line 18" class="cls-1" x2="3" transform="translate(381 471.5)"/>
    <line id="Line_18-42" data-name="Line 18" class="cls-1" x2="3" transform="translate(388 471.5)"/>
    <line id="Line_18-43" data-name="Line 18" class="cls-1" x2="3" transform="translate(395 471.5)"/>
    <line id="Line_18-44" data-name="Line 18" class="cls-1" x2="3" transform="translate(402 471.5)"/>
    <line id="Line_18-45" data-name="Line 18" class="cls-1" x2="3" transform="translate(409 471.5)"/>
    <line id="Line_18-46" data-name="Line 18" class="cls-1" x2="3" transform="translate(416 471.5)"/>
    <line id="Line_18-47" data-name="Line 18" class="cls-1" x2="3" transform="translate(423 471.5)"/>
    <line id="Line_18-48" data-name="Line 18" class="cls-1" x2="3" transform="translate(430 471.5)"/>
    <line id="Line_18-49" data-name="Line 18" class="cls-1" x2="3" transform="translate(437 471.5)"/>
    <line id="Line_18-50" data-name="Line 18" class="cls-1" x2="3" transform="translate(444 471.5)"/>
    <line id="Line_18-51" data-name="Line 18" class="cls-1" x2="3" transform="translate(451 471.5)"/>
    <line id="Line_18-52" data-name="Line 18" class="cls-1" x2="3" transform="translate(458 471.5)"/>
    <line id="Line_18-53" data-name="Line 18" class="cls-1" x2="3" transform="translate(465 471.5)"/>
    <line id="Line_18-54" data-name="Line 18" class="cls-1" x2="3" transform="translate(472 471.5)"/>
    <line id="Line_18-55" data-name="Line 18" class="cls-1" x2="3" transform="translate(479 471.5)"/>
    <line id="Line_18-56" data-name="Line 18" class="cls-1" x2="3" transform="translate(486 471.5)"/>
    <line id="Line_18-57" data-name="Line 18" class="cls-1" x2="3" transform="translate(493 471.5)"/>
    <line id="Line_18-58" data-name="Line 18" class="cls-1" x2="3" transform="translate(500 471.5)"/>
    <line id="Line_18-59" data-name="Line 18" class="cls-1" x2="3" transform="translate(507 471.5)"/>
    <line id="Line_18-60" data-name="Line 18" class="cls-1" x2="3" transform="translate(514 471.5)"/>
    <line id="Line_18-61" data-name="Line 18" class="cls-1" x2="3" transform="translate(521 471.5)"/>
    <line id="Line_18-62" data-name="Line 18" class="cls-1" x2="3" transform="translate(528 471.5)"/>
    <line id="Line_18-63" data-name="Line 18" class="cls-1" x2="3" transform="translate(535 471.5)"/>
    <line id="Line_18-64" data-name="Line 18" class="cls-1" x2="3" transform="translate(542 471.5)"/>
    <line id="Line_18-65" data-name="Line 18" class="cls-1" x2="3" transform="translate(549 471.5)"/>
    <line id="Line_18-66" data-name="Line 18" class="cls-1" x2="3" transform="translate(556 471.5)"/>
    <line id="Line_18-67" data-name="Line 18" class="cls-1" x2="3" transform="translate(563 471.5)"/>
    <line id="Line_18-68" data-name="Line 18" class="cls-1" x2="3" transform="translate(570 471.5)"/>
    <line id="Line_18-69" data-name="Line 18" class="cls-1" x2="3" transform="translate(577 471.5)"/>
    <line id="Line_18-70" data-name="Line 18" class="cls-1" x2="3" transform="translate(584 471.5)"/>
    <line id="Line_18-71" data-name="Line 18" class="cls-1" x2="3" transform="translate(591 471.5)"/>
    <line id="Line_18-72" data-name="Line 18" class="cls-1" x2="3" transform="translate(598 471.5)"/>
    <line id="Line_18-73" data-name="Line 18" class="cls-1" x2="3" transform="translate(605 471.5)"/>
    <line id="Line_18-74" data-name="Line 18" class="cls-1" x2="3" transform="translate(612 471.5)"/>
    <line id="Line_18-75" data-name="Line 18" class="cls-1" x2="3" transform="translate(619 471.5)"/>
    <line id="Line_18-76" data-name="Line 18" class="cls-1" x2="3" transform="translate(626 471.5)"/>
    <line id="Line_18-77" data-name="Line 18" class="cls-1" x2="3" transform="translate(633 471.5)"/>
    <line id="Line_18-78" data-name="Line 18" class="cls-1" x2="3" transform="translate(640 471.5)"/>
    <line id="Line_18-79" data-name="Line 18" class="cls-1" x2="3" transform="translate(647 471.5)"/>
    <line id="Line_18-80" data-name="Line 18" class="cls-1" x2="3" transform="translate(654 471.5)"/>
    <line id="Line_18-81" data-name="Line 18" class="cls-1" x2="3" transform="translate(661 471.5)"/>
    <line id="Line_18-82" data-name="Line 18" class="cls-1" x2="3" transform="translate(668 471.5)"/>
    <line id="Line_18-83" data-name="Line 18" class="cls-1" x2="3" transform="translate(675 471.5)"/>
    <line id="Line_18-84" data-name="Line 18" class="cls-1" x2="3" transform="translate(682 471.5)"/>
    <line id="Line_18-85" data-name="Line 18" class="cls-1" x2="3" transform="translate(689 471.5)"/>
    <line id="Line_18-86" data-name="Line 18" class="cls-1" x2="3" transform="translate(696 471.5)"/>
    <line id="Line_18-87" data-name="Line 18" class="cls-1" x2="3" transform="translate(703 471.5)"/>
    <line id="Line_18-88" data-name="Line 18" class="cls-1" x2="3" transform="translate(710 471.5)"/>
    <line id="Line_18-89" data-name="Line 18" class="cls-1" x2="3" transform="translate(717 471.5)"/>
    <line id="Line_18-90" data-name="Line 18" class="cls-1" x2="3" transform="translate(724 471.5)"/>
    <line id="Line_18-91" data-name="Line 18" class="cls-1" x2="3" transform="translate(731 471.5)"/>
    <line id="Line_18-92" data-name="Line 18" class="cls-1" x2="3" transform="translate(738 471.5)"/>
    <line id="Line_18-93" data-name="Line 18" class="cls-1" x2="3" transform="translate(745 471.5)"/>
    <line id="Line_18-94" data-name="Line 18" class="cls-1" x2="3" transform="translate(752 471.5)"/>
  </g>
</svg>
